<svg version="1.0" xmlns="http://www.w3.org/2000/svg"
 width="191.000000pt" height="185.000000pt" viewBox="0 0 191.000000 185.000000"
 preserveAspectRatio="xMidYMid meet">
<metadata>
Created by potrace 1.10, written by Peter Selinger 2001-2011
</metadata>
<g transform="translate(0.000000,185.000000) scale(0.050000,-0.050000)"
fill="#fec842" stroke="none">
<path d="M1590 3360 c-33 -8 -126 -16 -207 -18 -144 -2 -147 -3 -134 -47 8
-25 16 -121 18 -215 4 -222 -16 -236 -304 -200 -291 37 -314 31 -308 -80 2
-49 7 -166 11 -260 5 -124 18 -192 49 -252 24 -45 49 -129 57 -185 9 -70 35
-134 81 -198 40 -56 67 -119 67 -155 1 -33 27 -105 60 -160 33 -55 59 -116 60
-135 0 -20 36 -75 80 -122 44 -48 101 -136 128 -195 26 -59 84 -143 129 -186
44 -43 91 -103 103 -133 13 -31 76 -93 141 -138 83 -58 134 -113 173 -187 77
-144 136 -151 264 -29 50 48 126 112 168 143 41 30 91 88 110 128 18 40 65 91
102 114 129 76 182 141 182 220 0 62 16 89 97 167 74 71 99 112 109 175 8 45
40 116 74 158 34 43 60 99 60 131 0 77 30 150 113 275 64 97 69 115 57 203
-11 83 -6 108 36 174 42 65 52 111 63 292 l14 215 -57 0 c-31 0 -129 -15 -219
-34 -259 -53 -411 20 -349 169 26 63 15 240 -16 271 -12 12 -87 19 -168 17
-116 -3 -177 7 -281 47 -139 52 -418 67 -563 30z"/>
</g>
</svg>
