

<svg version="1.0" xmlns="http://www.w3.org/2000/svg"
 width="900.000000pt" height="450.000000pt" viewBox="0 0 900.000000 450.000000"
 preserveAspectRatio="xMidYMid meet">
<metadata>
Created by potrace 1.10, written by Peter Selinger 2001-2011
</metadata>
<g transform="translate(0.000000,450.000000) scale(0.100000,-0.100000)"
fill="#000000" stroke="none">
<path d="M4405 2794 c-108 -17 -231 -80 -308 -157 -47 -47 -117 -148 -117
-169 0 -8 -5 -19 -11 -25 -15 -15 -39 -139 -39 -203 0 -64 24 -188 39 -203 6
-6 11 -17 11 -25 0 -21 70 -122 117 -169 58 -59 135 -106 218 -134 100 -33
252 -34 350 0 83 29 160 76 218 134 47 47 117 148 117 169 0 8 5 19 11 25 15
15 39 139 39 203 0 64 -24 188 -39 203 -6 6 -11 17 -11 25 0 7 -17 39 -37 70
-106 160 -257 248 -443 256 -47 3 -98 2 -115 0z"/>
</g>
</svg>
