<svg id="Capa_1" data-name="Capa 1" xmlns="http://www.w3.org/2000/svg" viewBox="0 0 984.92 985.34"><defs><style>.cls-1{fill:#00334e;}</style></defs><title>tourbruhsy_tickets</title><path class="cls-1" d="M868.57,492.8c-4.41,22.1-24,38.2-47.5,39.2a16.2,16.2,0,0,0-6.21,30.8c21.3,10,33.2,32.4,28.7,54.5l-4.2,21c-5.5,27.7-36.1,45-62.9,38.4-7.5-1.8-15.2-3.2-22.8-4.7-11.2-2.2-22.4-4.5-33.6-6.7-14.8-3-29.6-5.9-44.4-8.9-17.6-3.5-35.3-7.1-52.9-10.6-19.69-4-39.4-7.9-59.1-11.9-21-4.2-42.1-8.4-63.1-12.7-21.6-4.3-43.2-8.7-64.7-13l-64.1-12.9L310.56,583c-18.7-3.7-37.3-7.5-56-11.2-16.2-3.2-32.4-6.5-48.5-9.7-12.9-2.6-25.8-5.2-38.8-7.8l-26.7-5.4c-4.1-.8-8.2-1.7-12.3-2.5-.2,0-.4-.1-.6-.1a50.67,50.67,0,0,1-3.6,31.9A51.25,51.25,0,0,1,67.86,607c-6.7-1.3-14,1.2-16.9,7.4l-9,19.5c-2.9,6.2,0,13.4,5.3,17.7,1,.8,721.8,333.1,723,333.4,6.7,1.3,14-1.2,16.9-7.4l9-19.5c2.9-6.2,0-13.4-5.3-17.7a51.17,51.17,0,0,1,41.7-90.2c6.7,1.3,14-1.2,16.9-7.4l9-19.5c2.9-6.2,0-13.4-5.3-17.7a51.17,51.17,0,0,1,41.7-90.2c6.7,1.3,14-1.2,16.9-7.4l9-19.5c2.9-6.2,0-13.4-5.3-17.7a51.17,51.17,0,0,1,41.7-90.2c6.7,1.3,14-1.2,16.9-7.4l9.9-21.6a12.32,12.32,0,0,0-6-16.4l-107.7-49.7Z" transform="translate(-0.2 0)"/><path class="cls-1" d="M9.66,485.9c1.2.6,779.3,156.7,780.6,156.7,6.81-.3,13.4-4.5,14.7-11.1l4.2-21c1.3-6.7-3.09-13.1-9.3-16a51.21,51.21,0,0,1,19.6-97.5c6.8-.3,13.4-4.5,14.7-11.1l3.1-15.4,1.11-5.7c1.3-6.7-3.11-13.1-9.3-16a51.21,51.21,0,0,1,19.6-97.5c6.8-.3,13.4-4.5,14.7-11.1l4.2-21c1.3-6.7-3.11-13.1-9.31-16a51.22,51.22,0,0,1,19.61-97.5c6.8-.3,13.39-4.5,14.7-11.1l4.69-23.3a12.31,12.31,0,0,0-9.69-14.5S105.67,0,104.87,0a12.39,12.39,0,0,0-12.1,9.9l-4.7,23.3c-1.3,6.7,3.1,13.1,9.3,16a51.21,51.21,0,0,1-19.6,97.5c-6.81.3-13.4,4.5-14.7,11.1l-4.2,21c-1.3,6.7,3.1,13.1,9.3,16a51.21,51.21,0,0,1-19.6,97.5c-6.8.3-13.4,4.5-14.7,11.1l-4.2,21c-1.3,6.7,3.1,13.1,9.3,16a51.21,51.21,0,0,1-19.6,97.5c-6.8.3-13.4,4.5-14.7,11.1L.47,470C-.94,476.7,3.46,483,9.66,485.9Zm666.5-256.3a25,25,0,1,1,49,9.8l-33,164.2-20.3,101.2a25,25,0,0,1-24.5,20.1,27.24,27.24,0,0,1-4.9-.5,25,25,0,0,1-19.6-29.4l22.71-112.9ZM225.37,139.1a25,25,0,1,1,49,9.8L263,205.6l-12.89,64.3-10.4,51.8-18.5,92.6a25,25,0,0,1-24.5,20.1,27.15,27.15,0,0,1-4.9-.5,11.7,11.7,0,0,1-2-.5,24.92,24.92,0,0,1-17.5-28.9l3.7-18.7,9.7-48.4Z" transform="translate(-0.2 0)"/></svg>