<?xml version="1.0" encoding="utf-8"?>
<!-- Generator: Adobe Illustrator 23.0.1, SVG Export Plug-In . SVG Version: 6.00 Build 0)  -->
<svg version="1.1" id="Layer_1" xmlns="http://www.w3.org/2000/svg" xmlns:xlink="http://www.w3.org/1999/xlink" x="0px" y="0px"
	 viewBox="0 0 25.3 26" style="enable-background:new 0 0 25.3 26;" xml:space="preserve">
<style type="text/css">
	.st0{fill:#003350;}
</style>
<g>
	<path class="st0" d="M23,1.9h-4.9c0-0.6-0.4-1-1-1s-1,0.4-1,1h-8c0-0.6-0.4-1-1-1s-1,0.4-1,1H1.2C0.6,1.9,0.1,2.4,0.1,3v20.8
		c0,0.6,0.4,1.1,1.1,1.1H23c0.6,0,1.2-0.5,1.2-1.1V3.1C24.2,2.4,23.6,1.9,23,1.9z M22.2,22.9h-20v-14h20V22.9z M22.2,7.9h-20v-4h4v1
		c0,0.6,0.4,1,1,1s1-0.4,1-1v-1h8v1c0,0.6,0.4,1,1,1s1-0.4,1-1v-1h4V7.9z"/>
	<path class="st0" d="M8.2,10.9h-4v4h4V10.9z"/>
	<path class="st0" d="M14.2,10.9h-4v4h4V10.9z"/>
	<path class="st0" d="M20.2,10.9h-4v4h4V10.9z"/>
	<path class="st0" d="M8.2,16.9h-4v4h4V16.9z"/>
	<path class="st0" d="M14.2,16.9h-4v4h4V16.9z"/>
	<path class="st0" d="M20.2,16.9h-4v4h4V16.9z"/>
</g>
</svg>
