

<svg id='hand-left' version="1.0" xmlns="http://www.w3.org/2000/svg"
 width="726.000000pt" height="480.000000pt" viewBox="0 0 726.000000 480.000000"
 preserveAspectRatio="xMidYMid meet">
<metadata>
Created by potrace 1.10, written by Peter Selinger 2001-2011
</metadata>
<g transform="translate(0.000000,480.000000) scale(0.100000,-0.100000)"
fill="#003350" stroke="none">
<path d="M3528 4030 c-9 -6 -49 -14 -90 -19 -96 -13 -198 -37 -211 -50 -6 -6
-40 -11 -77 -12 -36 0 -74 -4 -85 -9 -19 -7 -18 -8 7 -15 31 -8 135 -2 233 13
259 41 457 39 590 -6 17 -6 57 -18 90 -27 59 -17 101 -33 158 -61 16 -8 35
-14 42 -14 7 0 26 -6 42 -14 37 -18 90 -36 133 -45 19 -4 45 -13 57 -19 12 -7
33 -12 47 -12 14 0 40 -6 58 -14 34 -14 101 -32 173 -47 91 -18 182 -47 238
-75 16 -8 34 -14 42 -14 7 0 18 -7 25 -15 7 -8 19 -15 27 -15 8 0 35 -13 60
-30 24 -16 47 -30 51 -30 5 0 37 -19 73 -42 36 -24 84 -51 105 -62 21 -10 46
-22 54 -26 22 -12 159 -79 198 -96 17 -8 47 -20 65 -28 102 -45 196 -92 222
-110 41 -29 63 -41 115 -67 25 -12 64 -35 87 -51 23 -15 46 -28 52 -28 5 0 51
-42 101 -92 137 -141 140 -144 140 -166 0 -11 7 -28 16 -36 13 -14 15 -38 12
-142 -3 -109 -5 -127 -21 -136 -18 -9 -18 -10 0 -23 15 -12 16 -17 5 -35 -10
-16 -10 -25 -2 -35 8 -10 8 -19 1 -34 -6 -10 -12 -54 -13 -96 -1 -42 -6 -79
-10 -81 -5 -3 -4 -13 1 -22 13 -25 -11 -112 -35 -126 -10 -6 -39 -18 -64 -26
-33 -11 -45 -20 -45 -35 0 -15 -8 -21 -30 -23 -16 -2 -34 -10 -38 -18 -4 -8
-19 -14 -32 -14 -30 0 -55 -10 -55 -21 0 -15 67 -10 80 6 7 8 26 15 43 15 17
0 35 8 42 17 12 17 15 17 49 0 36 -17 49 -47 21 -47 -9 0 -27 7 -40 16 -36 24
-32 -1 5 -33 32 -26 32 -43 -1 -43 -10 0 -19 -7 -19 -15 0 -8 6 -15 14 -15 8
0 18 -5 22 -12 9 -14 -40 -58 -64 -58 -13 0 -12 -4 7 -19 l24 -19 -21 -11
c-11 -6 -29 -11 -39 -12 -15 0 -14 -2 5 -9 30 -13 28 -23 -18 -92 -22 -33 -40
-66 -40 -72 0 -16 -80 -56 -111 -56 -13 0 -33 -7 -43 -15 -11 -8 -27 -15 -37
-15 -9 0 -22 -6 -29 -14 -6 -8 -21 -16 -33 -18 -12 -2 -28 -16 -35 -31 -8 -16
-27 -33 -43 -39 -16 -5 -29 -14 -29 -20 0 -10 -37 -42 -71 -63 -57 -34 -101
-55 -118 -55 -11 0 -21 -5 -23 -11 -5 -16 -77 -39 -123 -39 -22 0 -49 -6 -60
-14 -11 -7 -31 -16 -45 -19 -37 -9 -462 -11 -482 -2 -24 10 -13 25 18 25 38 0
24 24 -17 28 -18 2 -37 8 -40 14 -3 5 -22 10 -40 11 -22 1 -37 8 -41 20 -4 9
-17 17 -28 17 -11 0 -20 5 -20 10 0 6 -10 15 -22 20 -13 6 -36 19 -53 30 -16
11 -40 24 -52 30 -13 5 -23 14 -23 19 0 5 -9 12 -20 16 -27 9 -157 132 -148
141 4 4 28 -11 54 -32 25 -21 65 -50 88 -63 22 -13 43 -27 46 -31 9 -13 50
-22 50 -11 0 6 -4 11 -8 11 -24 0 -207 176 -193 185 6 3 14 -1 17 -9 3 -9 12
-16 18 -16 7 0 26 -13 42 -30 16 -16 33 -30 38 -30 4 0 25 -14 46 -30 21 -17
45 -30 53 -30 8 0 17 -7 21 -15 3 -8 14 -15 25 -15 10 0 21 -7 25 -15 3 -8 13
-15 22 -15 9 0 22 -7 29 -16 9 -13 16 -14 31 -6 18 10 17 11 -8 21 -14 5 -29
15 -33 20 -3 6 -15 11 -26 11 -10 0 -19 4 -19 10 0 5 -10 12 -22 15 -13 3 -52
35 -87 70 -35 36 -70 65 -78 65 -9 0 -7 6 7 20 22 22 40 26 40 10 0 -5 11 -10
25 -10 16 0 25 -6 25 -15 0 -8 5 -15 12 -15 6 0 19 -7 29 -16 10 -9 23 -13 28
-9 13 7 -45 67 -101 105 -21 14 -38 29 -38 34 0 17 70 -3 96 -27 21 -20 106
-67 187 -105 4 -2 7 1 7 7 0 6 -16 19 -35 28 -19 9 -35 20 -35 25 0 4 -7 8
-15 8 -8 0 -23 9 -32 20 -10 11 -23 20 -30 20 -7 0 -13 4 -13 9 0 5 -8 12 -18
15 -22 7 -122 102 -122 116 0 15 20 12 26 -5 4 -8 12 -15 20 -15 8 0 14 -5 14
-10 0 -6 8 -14 18 -18 9 -4 44 -25 77 -47 70 -46 124 -75 141 -75 6 0 17 -7
24 -15 14 -16 54 -21 48 -5 -1 5 -52 46 -113 90 -60 44 -137 105 -170 135 -33
30 -73 66 -88 80 -16 14 -27 30 -25 36 2 6 25 -10 52 -35 26 -25 50 -46 52
-46 10 0 104 -75 104 -82 0 -4 5 -8 11 -8 6 0 28 -12 48 -27 44 -34 71 -51 91
-59 8 -3 22 -9 30 -14 54 -32 101 -52 107 -46 10 9 -27 38 -92 72 -57 30 -134
85 -135 97 0 13 37 7 50 -8 7 -8 20 -15 30 -15 21 0 103 -37 180 -81 49 -28
58 -30 87 -20 25 9 45 8 97 -5 65 -16 103 -14 91 6 -3 5 -16 10 -28 10 -12 0
-31 7 -41 15 -11 8 -30 15 -42 15 -12 0 -27 7 -34 15 -7 8 -19 15 -27 15 -8 0
-27 6 -41 14 -15 8 -47 24 -72 36 -25 12 -58 30 -75 40 -16 11 -40 25 -52 32
-59 36 -153 103 -153 110 0 4 -4 8 -10 8 -14 0 -60 49 -60 65 0 8 -7 11 -21 8
-18 -5 -20 -3 -14 17 6 19 4 21 -15 15 -19 -6 -21 -4 -16 13 4 13 1 22 -9 26
-20 7 -19 36 1 36 9 0 22 -7 29 -16 11 -15 14 -15 37 0 23 15 27 15 41 1 9 -8
18 -15 20 -15 3 0 29 -16 58 -36 126 -84 293 -152 431 -174 31 -5 88 -18 127
-28 63 -17 80 -18 175 -7 76 8 111 17 126 30 30 27 11 38 -52 31 -158 -19
-157 -19 -245 9 -56 18 -88 24 -95 17 -10 -10 -24 -7 -138 25 -90 25 -183 64
-242 101 -73 47 -136 93 -160 118 -15 16 -48 49 -73 73 -25 25 -45 51 -45 58
0 8 -7 16 -15 19 -8 4 -15 13 -15 20 0 8 -7 17 -15 20 -8 4 -15 13 -15 21 0
17 -145 211 -177 236 -36 29 -29 47 17 47 22 0 40 4 40 8 0 5 12 13 28 19 l27
11 -36 1 c-19 1 -39 -3 -45 -8 -5 -5 -23 -12 -41 -16 -26 -5 -34 -2 -45 14 -7
12 -18 21 -24 21 -7 0 -22 9 -35 20 -34 28 -13 38 58 28 75 -10 135 -9 148 3
14 14 63 11 93 -5 15 -8 44 -18 65 -21 20 -3 37 -10 37 -15 0 -4 14 -11 31
-15 17 -4 33 -13 36 -21 9 -24 93 -13 93 12 0 7 -13 21 -30 31 -16 9 -30 21
-30 25 0 5 -10 13 -22 19 -34 15 -68 35 -81 48 -6 6 -18 11 -27 11 -20 0 -77
27 -85 40 -4 6 -14 5 -25 -2 -16 -10 -23 -8 -44 12 -24 22 -27 22 -44 7 -16
-15 -20 -15 -33 -1 -13 12 -20 13 -42 3 -21 -9 -30 -9 -42 1 -19 15 -19 21 -1
45 11 16 17 17 29 7 11 -10 17 -9 27 2 8 10 22 13 41 9 35 -7 38 10 5 25 -17
8 -26 21 -29 44 l-4 33 -1 -36 -2 -36 -64 -1 c-40 0 -73 -6 -88 -16 -28 -18
-44 -10 -51 24 l-4 25 -2 -26 c-1 -32 -27 -57 -42 -42 -7 7 -20 1 -41 -19 -17
-16 -36 -27 -42 -25 -6 2 -14 21 -17 43 l-6 39 -2 -42 c-1 -33 -6 -46 -26 -59
-14 -9 -32 -14 -40 -10 -9 3 -25 0 -36 -7 -17 -10 -22 -9 -33 6 -11 14 -15 15
-19 4 -3 -8 -20 -17 -39 -20 -18 -3 -41 -8 -50 -12 -11 -4 -23 1 -34 14 -17
19 -19 19 -36 5 -15 -14 -29 -15 -120 -4 -57 6 -106 15 -109 18 -4 4 -3 35 1
68 4 34 6 74 4 90 -2 16 -6 61 -9 99 -14 166 -32 147 -33 -34 0 -128 -15 -204
-46 -241 -7 -8 -16 -23 -19 -32 -4 -10 -11 -18 -17 -18 -16 0 -12 40 5 46 11
5 15 23 15 74 0 61 -2 69 -25 84 l-25 17 1 -63 c2 -74 -15 -144 -36 -152 -8
-3 -15 -12 -15 -20 0 -20 -113 -136 -133 -136 -9 0 -22 -8 -29 -17 -16 -21
-52 -43 -72 -43 -7 0 -19 -7 -26 -15 -10 -12 -16 -13 -26 -4 -11 9 -20 6 -41
-15 -17 -18 -34 -25 -46 -22 -11 3 -30 -2 -43 -11 -13 -8 -34 -13 -46 -10 -13
3 -32 -1 -42 -9 -23 -16 -82 -19 -91 -4 -4 6 -21 8 -42 4 -34 -6 -35 -6 -28
17 6 20 5 22 -6 12 -18 -17 -80 -16 -103 2 -11 8 -33 15 -48 15 -35 0 -111 37
-103 50 4 6 36 10 73 10 39 1 77 7 92 15 14 8 39 14 56 15 16 0 39 7 50 15 10
8 29 15 40 15 12 0 24 7 28 15 3 8 14 15 25 15 20 0 106 71 122 102 12 22 0
78 -17 78 -8 0 -14 5 -14 10 0 6 -11 15 -25 20 -14 5 -25 14 -25 20 0 5 -6 10
-14 10 -7 0 -19 7 -26 15 -7 8 -25 15 -40 15 -16 0 -30 7 -34 15 -3 8 -17 15
-31 15 -18 0 -25 -5 -25 -20 0 -24 64 -54 99 -45 21 5 23 3 17 -20 -6 -24 8
-37 16 -13 3 8 15 5 40 -10 40 -25 51 -43 41 -69 -9 -28 -65 -83 -84 -83 -9 0
-28 -9 -42 -20 -14 -11 -36 -20 -50 -20 -14 0 -27 -7 -31 -15 -3 -10 -19 -15
-45 -15 -27 0 -43 -5 -49 -16 -6 -11 -12 -13 -16 -6 -4 7 -23 9 -51 5 -41 -5
-45 -4 -45 15 0 12 -9 23 -21 27 -27 9 -35 0 -19 -20 9 -11 10 -19 3 -26 -7
-7 -14 -5 -23 6 -7 8 -20 15 -30 15 -19 0 -50 40 -50 65 0 70 163 187 283 202
42 6 54 18 38 37 -14 16 -3 27 114 113 50 36 106 80 125 97 20 17 57 49 84 71
27 22 59 50 73 63 31 28 116 72 141 72 11 0 25 7 32 15 7 8 17 15 23 15 6 0
18 6 26 14 22 19 137 46 197 46 27 0 65 5 84 10 19 6 71 14 115 19 110 13 195
30 228 47 16 8 39 14 52 14 12 0 28 7 35 15 7 8 18 15 25 15 7 0 18 7 25 15 7
8 23 15 35 15 13 0 25 7 29 15 3 8 17 15 31 15 16 0 25 6 25 15 0 19 -37 19
-47 0 -5 -9 -26 -16 -52 -18 -23 -2 -46 -9 -51 -17 -8 -13 -13 -13 -31 -2 -19
12 -20 12 -14 -9 6 -19 4 -21 -14 -16 -11 3 -24 1 -27 -4 -3 -5 -21 -9 -40 -9
-19 0 -34 -4 -34 -10 0 -16 -50 -11 -57 5 -5 13 -8 13 -20 -5 -11 -16 -18 -18
-28 -10 -10 8 -19 8 -33 -1 -21 -13 -57 -5 -47 10 7 13 64 41 82 41 16 0 17
12 2 27 -15 15 -1 36 19 28 10 -4 23 3 34 17 13 18 20 20 29 11 16 -16 59 12
59 38 0 22 -11 24 -28 7 -7 -7 -27 -11 -45 -10 -21 2 -38 -3 -46 -12 -8 -9
-20 -16 -27 -16 -8 0 -14 -4 -14 -10 0 -5 -11 -10 -25 -10 -16 0 -25 -6 -25
-16 0 -12 -7 -15 -25 -12 -21 4 -24 2 -20 -13 7 -23 -24 -31 -47 -12 -11 10
-18 11 -23 4 -3 -6 1 -14 9 -17 25 -10 19 -34 -8 -34 -13 0 -26 -7 -30 -15 -9
-25 -49 -17 -88 20 -36 32 -46 54 -32 68 8 8 47 -12 57 -29 4 -8 15 -14 22
-14 8 0 15 -4 15 -10 0 -5 7 -10 15 -10 9 0 6 8 -11 25 -14 14 -27 25 -29 25
-3 0 -14 9 -26 21 -20 20 -20 49 1 49 5 0 10 5 10 10 0 6 10 24 22 40 16 23
19 33 10 42 -8 8 -17 7 -34 -5 -41 -29 -54 -42 -61 -59 -3 -10 -13 -18 -22
-18 -8 0 -15 -9 -15 -19 0 -10 -7 -21 -15 -25 -9 -3 -15 -18 -15 -34 0 -16 -7
-35 -15 -42 -11 -9 -14 -22 -9 -46 6 -32 4 -34 -20 -34 -15 0 -29 7 -32 15 -4
8 -12 15 -19 15 -7 0 -15 7 -19 15 -3 8 -10 15 -16 15 -5 0 -10 -7 -10 -15 0
-8 5 -15 10 -15 18 0 51 -41 48 -58 -2 -9 -14 -19 -28 -20 -14 -2 -33 -12 -43
-23 -27 -29 -68 -24 -92 11 -11 16 -24 30 -29 30 -5 0 -15 8 -22 17 -7 10 -16
14 -20 10 -4 -4 5 -20 22 -35 34 -33 55 -67 47 -76 -12 -12 -73 -6 -73 7 0 6
-12 24 -28 38 -15 14 -34 38 -42 53 -13 25 -13 29 0 40 10 7 15 30 16 64 1 48
7 69 35 124 5 10 9 28 9 42 0 13 7 29 15 36 19 16 19 30 0 30 -18 0 -64 -49
-65 -68 0 -7 -7 -15 -15 -18 -9 -4 -17 -27 -21 -66 -4 -37 -12 -62 -21 -65 -9
-3 -13 -17 -11 -36 2 -17 -2 -32 -9 -34 -7 -3 -13 2 -13 11 0 9 -7 16 -15 16
-23 0 -18 -16 15 -50 33 -34 37 -55 15 -84 -8 -11 -15 -29 -15 -41 0 -12 -5
-26 -10 -31 -7 -7 0 -26 21 -58 24 -36 29 -50 20 -59 -15 -15 -42 1 -56 31
-11 25 -35 30 -35 7 0 -8 6 -15 14 -15 16 0 29 -41 16 -54 -15 -15 -60 2 -60
25 0 11 -7 22 -15 25 -8 4 -15 12 -15 19 0 16 -18 30 -27 21 -4 -3 1 -14 9
-23 43 -49 22 -90 -27 -51 -15 11 -34 18 -45 15 -11 -3 -22 -1 -25 3 -3 5 -22
14 -43 21 -20 6 -51 22 -68 35 -28 20 -34 22 -44 9 -19 -23 -43 -18 -80 18
l-33 32 7 -28 c6 -26 5 -28 -16 -21 -34 10 -158 13 -158 3 0 -25 -77 5 -85 33
-10 30 -25 20 -19 -12 6 -25 3 -30 -14 -30 -19 0 -82 55 -82 72 0 4 -5 8 -11
8 -5 0 -23 14 -39 32 -16 17 -33 29 -37 25 -4 -4 8 -21 25 -37 18 -16 32 -34
32 -39 0 -6 6 -11 14 -11 14 0 29 -37 20 -52 -9 -14 -51 -9 -64 7 -12 14 -15
14 -30 0 -21 -19 -49 -19 -56 0 -4 8 -10 15 -15 15 -12 0 -49 38 -49 50 0 5
-5 10 -11 10 -7 0 -18 8 -25 17 -7 10 -16 15 -20 11 -4 -4 12 -26 35 -49 22
-23 41 -48 41 -55 0 -19 -30 -17 -53 3 -18 17 -19 17 -28 0 -12 -21 -42 -22
-59 -2 -12 14 -15 14 -30 0 -24 -22 -57 -19 -94 10 -40 30 -46 31 -46 6 0 -18
-4 -19 -29 -10 -15 5 -42 23 -59 40 -17 16 -33 25 -36 20 -4 -5 2 -14 11 -20
14 -8 15 -12 6 -22 -9 -9 -22 -8 -58 6 -26 9 -49 23 -52 31 -3 8 -11 14 -18
14 -7 0 -16 8 -19 17 -5 13 -9 14 -19 4 -9 -9 -9 -14 2 -20 26 -16 -1 -31 -56
-31 -38 0 -62 5 -75 16 -16 16 -18 16 -24 0 -10 -26 -74 -21 -106 9 -21 19
-34 24 -53 19 -21 -5 -27 -2 -32 15 -3 14 -13 21 -29 21 -28 0 -30 -7 -9 -37
9 -13 11 -24 6 -28 -5 -3 -12 -1 -16 5 -3 5 -21 10 -39 10 -19 0 -39 7 -46 15
-7 8 -23 15 -35 15 -12 0 -28 6 -35 14 -6 8 -21 16 -33 18 -32 4 -28 32 6 36
21 3 27 -1 27 -16 0 -15 9 -21 33 -25 17 -4 47 -9 65 -13 39 -8 42 7 6 35 -16
13 -41 21 -64 21 -24 0 -40 5 -43 14 -5 12 -12 12 -34 4 -39 -14 -83 4 -83 34
0 13 -7 32 -15 42 -9 12 -15 41 -15 71 0 55 12 72 77 107 29 16 65 17 370 15
306 -2 341 0 370 16 22 11 54 17 100 17 37 0 100 7 138 15 39 8 93 15 121 15
27 0 56 6 63 13 16 16 252 14 319 -3 34 -9 55 -9 75 -1 35 13 35 27 0 35 -62
14 -318 19 -373 6 -30 -6 -95 -16 -145 -20 -85 -8 -127 -14 -320 -43 -50 -7
-204 -12 -409 -12 l-328 0 -40 -45 c-81 -91 -85 -167 -14 -287 29 -49 111
-123 136 -123 7 0 24 -6 38 -14 44 -24 123 -46 166 -47 23 0 82 -6 133 -12 71
-10 104 -10 145 -1 53 12 114 8 124 -7 3 -5 17 -9 32 -9 15 0 45 -6 67 -14 72
-25 360 -39 575 -28 273 14 400 15 400 5 0 -13 -44 -53 -57 -53 -11 0 -233
-217 -233 -228 0 -4 -20 -31 -45 -59 -25 -29 -52 -68 -60 -87 -15 -35 -21
-160 -9 -190 14 -37 24 -11 24 65 0 82 18 144 47 162 7 4 13 14 13 21 0 8 7
16 15 20 8 3 15 10 15 17 0 13 28 45 140 158 105 107 138 121 243 103 48 -9
74 -9 81 -2 13 13 56 13 56 0 0 -5 11 -10 25 -10 14 0 25 -5 25 -11 0 -8 13
-9 40 -5 25 4 40 2 40 -4 0 -5 -5 -10 -11 -10 -7 0 -9 -10 -5 -25 9 -34 -16
-43 -43 -16 -12 12 -21 26 -21 31 0 6 -7 10 -15 10 -8 0 -15 -7 -15 -15 0 -8
5 -15 10 -15 13 0 50 -37 50 -50 0 -11 -94 -84 -130 -100 -26 -11 -37 -17
-110 -64 -79 -50 -114 -109 -123 -208 -5 -59 -4 -70 13 -86 21 -20 26 -56 15
-114 -6 -31 -5 -38 9 -38 12 0 16 10 16 45 0 37 3 45 19 45 12 0 21 -9 25 -25
7 -27 28 -41 96 -65 52 -19 59 -37 37 -102 -11 -30 -21 -43 -33 -43 -16 0 -19
7 -17 53 2 46 0 53 -15 50 -20 -4 -29 -53 -13 -71 5 -7 6 -18 2 -25 -12 -20
-170 -10 -186 12 -7 9 -22 16 -34 16 -26 0 -48 12 -130 73 -76 56 -89 73 -104
134 -19 74 -38 68 -30 -9 7 -74 31 -131 70 -173 36 -38 133 -106 175 -121 23
-8 30 -30 12 -44 -8 -7 -14 -20 -14 -30 0 -10 -7 -23 -15 -30 -8 -7 -15 -25
-15 -41 0 -15 -7 -32 -15 -36 -11 -7 -15 -33 -17 -113 -2 -103 -1 -107 34
-180 49 -100 138 -189 200 -201 24 -5 61 -12 83 -16 l40 -8 3 -80 c1 -44 9
-94 17 -112 8 -17 15 -35 15 -41 0 -27 94 -192 110 -192 4 0 31 -19 61 -42
l53 -43 206 -2 c113 0 293 -2 400 -4 249 -2 295 4 392 57 14 7 31 14 37 14 6
0 46 21 89 48 l77 47 109 -2 c78 -2 115 -6 132 -18 13 -8 33 -15 45 -15 11 0
33 -6 47 -14 15 -8 63 -28 107 -46 75 -30 96 -38 185 -70 19 -6 56 -16 82 -20
27 -5 54 -12 60 -17 7 -4 36 -11 63 -14 28 -4 68 -12 90 -17 22 -6 121 -13
219 -17 99 -3 183 -8 186 -10 10 -6 228 23 295 39 67 16 130 38 184 64 65 32
131 74 131 83 0 5 6 9 13 9 7 0 35 26 62 57 27 32 58 64 68 71 10 8 25 22 35
31 19 20 55 41 70 41 6 0 9 -15 8 -32 -1 -26 3 -32 17 -30 10 2 17 -3 17 -14
0 -10 -6 -14 -14 -11 -11 4 -13 -12 -10 -89 3 -80 8 -100 29 -134 16 -25 33
-40 46 -40 11 0 37 -13 57 -29 l37 -29 165 -1 c234 -1 275 10 236 64 -14 19
-15 19 -25 -7 -13 -36 -19 -35 -35 3 l-13 31 -11 -31 c-12 -34 -41 -42 -62
-16 -12 14 -15 14 -30 0 -21 -19 -44 -19 -60 0 -11 14 -14 13 -25 -2 -7 -10
-19 -14 -29 -10 -13 5 -16 14 -10 42 4 21 2 35 -4 35 -11 0 -22 -24 -22 -50 0
-18 -19 -30 -47 -30 -16 0 -16 24 3 138 4 28 2 51 -6 67 -11 20 -10 28 2 47 8
13 25 56 37 95 13 40 27 75 32 78 5 4 9 14 9 24 0 10 7 24 15 31 8 7 15 25 15
39 0 15 7 36 15 47 8 10 15 33 15 50 0 17 7 37 15 44 8 7 15 27 15 45 0 18 7
38 15 45 9 7 15 29 15 52 0 22 7 46 15 55 19 19 17 124 -2 131 -10 3 -13 -15
-13 -66 0 -53 -4 -71 -15 -76 -10 -4 -15 -20 -15 -50 0 -30 -5 -46 -15 -50
-10 -3 -15 -19 -15 -45 0 -25 -5 -41 -15 -45 -10 -3 -15 -19 -15 -45 0 -25 -5
-41 -15 -45 -8 -3 -15 -16 -15 -29 0 -14 -6 -30 -14 -36 -8 -7 -17 -24 -21
-39 -6 -24 -8 -25 -17 -9 -7 13 -5 25 6 42 9 13 16 35 16 48 0 14 7 30 15 37
8 7 15 25 15 40 0 15 7 33 15 40 8 7 15 25 15 41 0 15 7 34 15 43 8 8 15 30
15 48 0 19 7 43 15 54 8 10 15 39 15 64 0 25 7 58 15 74 8 15 15 42 16 60 1
17 4 42 8 56 7 22 9 18 16 -25 9 -60 15 -72 26 -54 13 21 11 207 -2 232 -7 11
-18 82 -26 157 -26 244 -27 266 -9 301 23 46 21 114 -4 132 -16 11 -19 21 -14
44 3 18 1 40 -7 54 l-13 24 -6 -33 c-6 -39 -24 -47 -29 -12 -1 14 -6 27 -10
30 -11 9 -51 69 -51 77 0 4 -20 25 -45 47 -44 37 -50 56 -19 56 25 0 124 -109
124 -136 0 -15 6 -24 15 -24 10 0 15 10 15 29 0 16 -6 31 -15 35 -8 3 -15 11
-15 19 0 15 -57 71 -82 80 -9 3 -18 18 -20 34 -3 27 -5 28 -51 26 -26 -1 -54
-7 -62 -13 -11 -9 -28 -4 -79 21 -36 18 -66 36 -66 41 0 4 -8 8 -18 8 -10 0
-27 7 -38 15 -20 14 -147 78 -246 124 -26 12 -50 26 -53 32 -4 5 -16 9 -28 9
-31 0 -357 165 -421 213 -17 13 -38 27 -46 30 -8 4 -28 16 -45 26 -16 11 -61
35 -100 54 -65 33 -93 44 -185 76 -43 16 -132 40 -185 51 -22 4 -55 13 -72 19
-73 25 -99 33 -128 41 -16 5 -46 14 -65 20 -32 12 -51 19 -135 55 -133 56
-253 90 -375 105 -41 5 -93 14 -115 20 -51 12 -185 12 -207 0z m-254 -495 c25
-19 14 -47 -16 -43 -17 2 -24 11 -26 31 -4 30 12 35 42 12z m-429 -162 c30
-32 29 -67 0 -71 -16 -2 -25 7 -38 36 -9 21 -17 44 -17 50 0 21 28 13 55 -15z
m-75 -54 c0 -11 -4 -17 -10 -14 -5 3 -10 13 -10 21 0 8 5 14 10 14 6 0 10 -9
10 -21z m1450 -513 c-18 -23 -30 -20 -30 7 0 32 11 40 29 23 12 -12 12 -18 1
-30z m-110 -26 c-14 -11 -32 -20 -40 -20 -10 0 -7 7 10 20 14 11 32 20 40 20
10 0 7 -7 -10 -20z m-193 -97 c79 -58 117 -167 78 -219 -8 -10 -15 -28 -15
-39 -1 -34 -16 -51 -33 -37 -12 10 -16 9 -20 -8 -3 -11 -13 -23 -24 -26 -10
-4 -37 -15 -60 -26 -23 -11 -47 -17 -53 -13 -5 3 -10 2 -10 -3 0 -15 -69 -42
-108 -42 -21 0 -44 -6 -50 -12 -7 -7 -23 -13 -35 -14 -12 -1 -29 -3 -37 -5
-16 -4 -16 -4 -7 91 2 30 2 39 -2 20 -4 -22 -12 -35 -21 -35 -22 0 -27 107 -5
125 8 7 15 20 15 28 0 17 75 92 91 92 5 0 27 9 49 20 31 16 59 20 131 20 82 0
91 -2 96 -20 4 -15 11 -18 28 -14 19 5 23 0 29 -28 8 -33 8 -33 17 -8 8 19 6
27 -5 36 -9 6 -16 16 -16 22 0 6 -16 19 -35 28 -47 22 -211 16 -229 -8 -7 -10
-22 -14 -42 -11 -20 3 -35 -1 -43 -11 -8 -9 -19 -16 -26 -16 -7 0 -32 -22 -57
-48 l-45 -48 -12 -108 c-7 -59 -10 -111 -7 -114 3 -3 6 4 6 16 0 26 19 39 31
21 27 -43 -6 -98 -51 -84 -10 3 -21 1 -25 -5 -3 -5 -17 -10 -30 -10 -13 0 -27
-5 -30 -11 -4 -5 -17 -9 -28 -7 -12 1 -26 0 -32 -4 -19 -11 -160 -31 -210 -29
-27 1 -55 7 -62 12 -8 7 -18 7 -31 0 -21 -11 -42 2 -42 27 0 9 -6 6 -18 -8
-17 -21 -19 -21 -35 -5 -10 9 -24 15 -32 12 -7 -3 -18 0 -23 6 -14 18 4 156
23 177 14 16 56 31 92 34 6 1 20 9 30 19 11 9 23 17 28 17 4 0 23 11 41 25 18
14 36 25 40 25 4 0 42 32 86 71 44 40 93 75 112 80 18 5 51 21 72 35 35 24 43
26 108 19 158 -15 335 -5 357 21 17 21 32 17 86 -23z m-1457 -343 c0 -7 14 -9
97 -10 49 -1 58 -11 67 -68 l6 -42 -42 6 c-24 4 -47 14 -52 22 -8 13 -11 13
-23 -4 -11 -15 -17 -16 -32 -7 -11 7 -34 10 -54 6 -44 -7 -54 9 -28 43 12 15
21 34 21 44 0 9 3 19 6 23 7 7 34 -2 34 -13z m354 -6 c12 -30 7 -142 -6 -146
-30 -11 -38 4 -38 67 0 71 6 95 25 95 7 0 16 -7 19 -16z m-116 -20 c8 -15 10
-15 15 0 4 9 15 16 26 16 17 0 19 -6 16 -57 l-2 -58 -49 0 -49 0 3 45 c1 25 4
51 7 58 6 17 22 15 33 -4z m1762 -14 c0 -11 -4 -20 -9 -20 -14 0 -23 18 -16
30 10 17 25 11 25 -10z m30 -55 c0 -7 7 -15 15 -19 16 -6 21 -36 6 -36 -12 0
-51 62 -45 72 7 11 24 0 24 -17z m-471 -62 c28 -31 51 -63 51 -70 0 -8 7 -24
16 -37 18 -29 16 -117 -3 -124 -9 -2 -13 11 -13 46 0 32 -5 54 -15 62 -8 7
-15 18 -15 24 0 7 -12 23 -26 37 -22 21 -35 24 -95 23 -39 0 -74 -5 -81 -12
-7 -7 -29 -12 -49 -12 -20 0 -42 -7 -49 -15 -7 -8 -17 -15 -22 -15 -14 0 -68
-43 -68 -54 0 -5 -9 -19 -19 -30 -11 -12 -21 -34 -23 -51 -2 -24 1 -29 15 -27
14 2 17 -5 17 -38 0 -27 4 -40 14 -40 9 0 15 -22 19 -82 3 -45 3 -86 1 -90 -3
-5 -16 -8 -29 -8 -12 0 -25 -7 -29 -15 -3 -8 -16 -15 -30 -15 -13 0 -26 -7
-30 -15 -3 -8 -15 -15 -26 -15 -11 0 -23 -7 -26 -15 -4 -8 -18 -15 -34 -15
-15 0 -30 -6 -33 -14 -5 -12 -38 -20 -132 -30 -16 -1 -38 -6 -48 -11 -10 -4
-60 -4 -112 0 -70 5 -95 11 -99 22 -5 11 -10 12 -19 4 -12 -9 -52 -8 -114 5
-15 3 -23 12 -24 27 l0 22 -9 -22 c-11 -27 -35 -30 -44 -7 -5 13 -9 14 -21 4
-8 -6 -23 -9 -34 -5 -11 3 -116 7 -234 9 -180 2 -219 5 -240 19 -22 14 -27 14
-37 2 -10 -12 -16 -13 -28 -3 -8 7 -27 11 -43 10 -24 -3 -32 3 -50 32 -11 20
-27 36 -35 36 -11 0 -13 7 -8 28 5 22 4 25 -7 15 -23 -22 -32 -14 -26 23 5 31
4 34 -12 29 -16 -5 -20 2 -26 37 -12 74 -6 182 10 194 8 6 15 25 15 42 0 17 6
32 14 35 8 3 16 18 18 34 l3 28 215 -2 c118 0 247 -6 285 -12 88 -15 208 -39
260 -54 46 -12 129 -24 230 -33 67 -5 188 10 260 34 17 6 46 15 65 22 64 21
144 42 185 49 23 4 47 11 55 16 8 5 35 13 60 17 88 14 165 33 185 45 42 26 71
16 124 -44z m-98 -75 c15 10 20 9 29 -8 6 -11 16 -17 25 -13 30 11 62 -37 67
-102 5 -57 4 -62 -23 -89 -23 -23 -31 -26 -43 -17 -11 9 -15 7 -18 -7 -6 -20
-59 -52 -88 -52 -10 0 -35 -17 -56 -38 -22 -21 -51 -45 -66 -54 -24 -16 -27
-16 -33 0 -4 10 1 21 12 29 15 12 16 16 4 35 -18 29 -43 132 -44 188 -2 38 2
46 22 56 14 7 29 21 35 31 8 13 26 19 61 21 31 2 53 9 58 18 7 12 11 13 24 3
11 -10 19 -10 34 -1z m191 -325 c21 -19 24 -53 4 -53 -8 0 -26 4 -40 10 -17 6
-26 6 -26 0 0 -6 4 -10 9 -10 5 0 11 -9 14 -20 4 -16 11 -19 29 -15 49 11 86
-106 47 -151 -9 -11 -19 -31 -23 -46 -4 -19 -13 -28 -26 -28 -11 0 -20 -7 -20
-16 0 -8 -14 -20 -30 -26 -17 -5 -35 -19 -41 -30 -7 -13 -16 -17 -30 -13 -14
5 -19 2 -19 -14 0 -11 -13 -29 -30 -41 -16 -12 -30 -17 -30 -11 0 6 5 11 10
11 16 0 12 45 -7 82 -9 18 -22 45 -30 60 -7 14 -13 33 -13 41 0 8 -7 20 -15
27 -24 20 -15 56 13 52 18 -1 22 2 18 16 -4 13 3 25 24 40 16 12 33 22 39 22
5 0 12 7 15 16 4 10 12 14 22 10 17 -6 44 9 44 25 0 15 -57 10 -70 -6 -7 -8
-17 -15 -22 -15 -14 0 -92 -62 -112 -88 -27 -36 -26 -113 2 -151 12 -16 22
-37 22 -45 0 -8 9 -24 21 -35 16 -14 18 -23 11 -37 -5 -11 -18 -36 -28 -56
-11 -23 -26 -38 -36 -38 -10 0 -18 -5 -18 -11 0 -5 -15 -16 -32 -24 -18 -8
-46 -23 -63 -35 -16 -11 -37 -20 -46 -20 -9 0 -19 -7 -23 -15 -3 -9 -18 -15
-35 -15 -16 0 -31 -5 -33 -12 -2 -6 -28 -13 -58 -15 -30 -2 -58 -7 -62 -11 -4
-4 -29 -5 -55 -2 -27 3 -58 2 -71 -4 -15 -6 -30 -5 -47 4 -19 10 -27 10 -39 1
-8 -7 -20 -10 -25 -6 -6 3 -19 1 -30 -5 -15 -7 -23 -6 -34 4 -10 10 -18 11
-25 4 -9 -9 -116 -20 -192 -20 -19 1 -39 -3 -45 -7 -12 -10 -71 -7 -99 5 -24
9 -56 41 -56 54 0 6 -6 13 -14 16 -8 3 -19 19 -25 35 -5 16 -15 29 -20 29 -6
0 -11 9 -11 19 0 25 -18 37 -33 22 -7 -7 -6 -12 6 -17 9 -3 17 -15 17 -26 0
-10 11 -31 25 -46 14 -15 25 -32 25 -38 0 -7 6 -14 14 -17 7 -3 16 -15 19 -27
5 -20 3 -22 -25 -16 -17 3 -39 6 -49 6 -10 0 -30 11 -45 25 -15 14 -33 25 -40
25 -8 0 -14 7 -14 15 0 8 -6 14 -12 12 -8 -1 -12 7 -10 22 2 18 -2 22 -14 17
-31 -12 -75 59 -109 177 -16 55 -16 59 2 95 19 35 23 37 74 40 63 4 355 -22
479 -43 176 -30 362 -27 450 6 68 25 181 83 255 130 22 14 47 29 55 32 8 4 29
16 45 27 17 11 36 23 43 26 8 4 28 20 45 35 17 16 37 29 43 29 6 0 17 6 23 14
6 8 22 16 34 19 12 3 40 12 62 21 52 20 74 20 97 -1z m250 -98 c37 -36 62 -67
57 -70 -10 -7 -69 45 -111 98 -46 58 -18 44 54 -28z m116 -97 c13 -13 16 -28
5 -28 -5 0 -19 9 -33 20 -23 18 -24 20 -4 20 11 0 25 -5 32 -12z m-202 -293
c4 -8 10 -15 14 -15 5 0 24 -13 42 -30 18 -16 36 -30 39 -30 9 0 112 -70 119
-80 3 -4 14 -9 24 -11 11 -2 21 -10 24 -16 5 -18 -33 -16 -48 2 -7 8 -21 15
-31 15 -10 0 -22 6 -26 13 -4 6 -26 21 -47 32 -41 21 -136 109 -136 125 0 16
20 11 26 -5z m319 -206 c4 -6 5 -13 2 -16 -8 -7 -47 7 -47 18 0 13 37 11 45
-2z m79 -28 c3 -5 0 -11 -8 -14 -19 -8 -57 3 -50 14 7 12 51 12 58 0z m116 0
c0 -14 -18 -23 -30 -16 -6 4 -8 11 -5 16 8 12 35 12 35 0z m1319 -81 c12 -6
19 -15 16 -21 -9 -13 -45 -11 -45 2 0 7 -6 17 -14 23 -10 7 -13 21 -9 40 l6
28 13 -30 c7 -17 22 -36 33 -42z"/>
<path d="M3752 2490 c0 -19 2 -27 5 -17 2 9 2 25 0 35 -3 9 -5 1 -5 -18z"/>
<path d="M3812 2450 c0 -19 2 -27 5 -17 2 9 2 25 0 35 -3 9 -5 1 -5 -18z"/>
<path d="M3932 2440 c0 -19 2 -27 5 -17 2 9 2 25 0 35 -3 9 -5 1 -5 -18z"/>
<path d="M3601 2413 c0 -36 3 -43 9 -28 12 28 12 63 0 70 -6 4 -10 -12 -9 -42z"/>
<path d="M3205 2397 c-4 -26 -3 -78 2 -115 l9 -67 8 87 c5 53 4 97 -2 115 -9
27 -10 27 -17 -20z"/>
<path d="M3151 2385 c-5 -62 -4 -175 2 -181 10 -10 12 24 6 121 -3 55 -7 82
-8 60z"/>
<path d="M3029 2378 c0 -7 -2 -50 -5 -95 -4 -56 -2 -83 5 -83 7 0 11 34 11 95
0 52 -2 95 -5 95 -3 0 -5 -6 -6 -12z"/>
<path d="M3388 2352 c-2 -22 -1 -50 3 -63 5 -23 6 -23 11 6 7 36 5 81 -3 90
-4 3 -8 -12 -11 -33z"/>
<path d="M3327 2360 c-3 -11 -1 -33 3 -48 7 -23 8 -21 9 21 1 50 -3 60 -12 27z"/>
<path d="M2141 2021 c-11 -7 -12 -15 -4 -38 6 -15 14 -37 18 -48 7 -20 7 -20
15 0 8 20 2 74 -9 87 -3 4 -12 3 -20 -1z"/>
<path d="M2222 1970 c0 -19 2 -27 5 -17 2 9 2 25 0 35 -3 9 -5 1 -5 -18z"/>
<path d="M2066 1952 c3 -66 4 -72 13 -72 17 0 23 40 11 75 -15 46 -25 44 -24
-3z"/>
<path d="M2283 1950 c0 -25 2 -35 4 -22 2 12 2 32 0 45 -2 12 -4 2 -4 -23z"/>
<path d="M2399 1983 c-6 -36 -7 -113 -3 -132 4 -20 7 -22 14 -11 12 19 11 138
-1 146 -5 3 -10 2 -10 -3z"/>
<path d="M2335 1938 c-4 -21 -4 -49 -1 -62 3 -14 1 -30 -7 -38 -24 -25 -47
-67 -47 -85 1 -15 5 -13 25 10 14 15 25 37 25 47 0 10 4 21 9 24 13 9 21 79
12 111 l-8 30 -8 -37z"/>
<path d="M2760 1895 c0 -32 2 -56 5 -53 7 7 9 97 2 105 -4 3 -7 -20 -7 -52z"/>
<path d="M2552 1900 c0 -19 2 -27 5 -17 2 9 2 25 0 35 -3 9 -5 1 -5 -18z"/>
<path d="M3483 1875 c0 -22 2 -30 4 -17 2 12 2 30 0 40 -3 9 -5 -1 -4 -23z"/>
<path d="M2250 1858 c0 -48 16 -42 26 10 5 25 3 32 -10 32 -12 0 -16 -10 -16
-42z"/>
<path d="M2697 1877 c-15 -40 -3 -142 14 -115 10 15 10 72 0 108 -6 22 -8 23
-14 7z"/>
<path d="M3266 1872 c-4 -12 -3 -29 2 -38 9 -15 10 -15 16 4 4 12 3 29 -2 38
-9 15 -10 15 -16 -4z"/>
<path d="M3422 1860 c0 -19 2 -27 5 -17 2 9 2 25 0 35 -3 9 -5 1 -5 -18z"/>
<path d="M2100 1840 c0 -16 5 -30 10 -30 6 0 10 -8 10 -18 0 -11 9 -27 20 -37
11 -10 20 -24 20 -30 0 -13 29 -29 37 -21 3 3 -2 15 -11 28 -9 12 -16 29 -16
36 0 7 -7 20 -15 28 -8 9 -15 29 -15 45 0 22 -5 29 -20 29 -16 0 -20 -7 -20
-30z"/>
<path d="M2185 1847 c-5 -17 -3 -33 3 -39 16 -16 27 18 14 45 -10 22 -10 21
-17 -6z"/>
<path d="M3356 1843 c-4 -13 -4 -33 0 -45 10 -34 25 2 15 38 -7 28 -8 28 -15
7z"/>
<path d="M2643 1785 c0 -33 2 -45 4 -27 2 18 2 45 0 60 -2 15 -4 0 -4 -33z"/>
<path d="M3122 1810 c0 -19 2 -27 5 -17 2 9 2 25 0 35 -3 9 -5 1 -5 -18z"/>
<path d="M3063 1770 c0 -36 2 -50 4 -32 2 17 2 47 0 65 -2 17 -4 3 -4 -33z"/>
<path d="M2486 1795 c-3 -9 -2 -24 2 -32 8 -13 10 -13 16 2 3 9 2 24 -2 32 -8
13 -10 13 -16 -2z"/>
<path d="M2366 1767 c-5 -15 -6 -31 -2 -34 11 -11 18 5 14 34 l-4 28 -8 -28z"/>
<path d="M2908 1766 c-3 -16 -2 -40 2 -55 l7 -26 7 31 c4 16 3 41 -2 54 l-9
24 -5 -28z"/>
<path d="M2853 1725 c0 -27 2 -38 4 -22 2 15 2 37 0 50 -2 12 -4 0 -4 -28z"/>
<path d="M2582 1730 c0 -19 2 -27 5 -17 2 9 2 25 0 35 -3 9 -5 1 -5 -18z"/>
<path d="M3003 1705 c0 -27 2 -38 4 -22 2 15 2 37 0 50 -2 12 -4 0 -4 -28z"/>
<path d="M3872 2020 c0 -19 2 -27 5 -17 2 9 2 25 0 35 -3 9 -5 1 -5 -18z"/>
<path d="M3932 2020 c0 -19 2 -27 5 -17 2 9 2 25 0 35 -3 9 -5 1 -5 -18z"/>
<path d="M3902 1880 c0 -19 2 -27 5 -17 2 9 2 25 0 35 -3 9 -5 1 -5 -18z"/>
<path d="M2456 1312 c-9 -29 3 -51 16 -28 5 10 5 23 0 33 -9 14 -10 14 -16 -5z"/>
<path d="M3003 1285 c0 -22 2 -30 4 -17 2 12 2 30 0 40 -3 9 -5 -1 -4 -23z"/>
<path d="M3093 1195 c0 -22 2 -30 4 -17 2 12 2 30 0 40 -3 9 -5 -1 -4 -23z"/>
<path d="M2778 3913 c-45 -12 -10 -23 71 -23 97 0 151 8 151 21 0 9 -190 11
-222 2z"/>
<path d="M2482 3883 c-61 -8 -21 -23 61 -23 101 0 164 9 145 21 -13 9 -143 10
-206 2z"/>
<path d="M2105 3853 c-16 -3 -34 -9 -39 -14 -6 -5 37 -9 111 -9 139 0 221 9
201 21 -13 9 -217 10 -273 2z"/>
<path d="M1762 3638 c5 -15 48 -24 48 -10 0 10 -23 22 -42 22 -5 0 -8 -6 -6
-12z"/>
<path d="M2727 3644 c-8 -8 1 -24 14 -24 5 0 9 7 9 15 0 15 -12 20 -23 9z"/>
<path d="M4026 3630 c7 -7 19 -7 35 -1 23 9 22 10 -10 10 -24 1 -32 -2 -25 -9z"/>
<path d="M3382 3609 c2 -7 10 -15 17 -17 8 -3 12 1 9 9 -2 7 -10 15 -17 17 -8
3 -12 -1 -9 -9z"/>
<path d="M2936 3522 c-3 -6 -1 -14 5 -17 15 -10 25 3 12 16 -7 7 -13 7 -17 1z"/>
<path d="M1972 3488 c6 -18 28 -21 28 -4 0 9 -7 16 -16 16 -9 0 -14 -5 -12
-12z"/>
<path d="M2971 3491 c2 -6 20 -22 38 -33 19 -12 32 -16 30 -9 -2 6 -20 22 -38
33 -19 12 -32 16 -30 9z"/>
<path d="M1796 3462 c-3 -6 -1 -14 5 -17 15 -10 25 3 12 16 -7 7 -13 7 -17 1z"/>
<path d="M2690 3440 c-13 -8 -13 -11 2 -26 16 -17 18 -17 24 0 9 23 -7 38 -26
26z"/>
<path d="M2030 3434 c0 -12 107 -113 114 -107 3 4 -14 26 -39 50 -25 23 -45
47 -45 53 0 5 -7 10 -15 10 -8 0 -15 -3 -15 -6z"/>
<path d="M831 3401 c-10 -6 -9 -10 3 -14 8 -3 18 -2 21 3 8 13 -9 20 -24 11z"/>
<path d="M2487 3373 c-7 -11 41 -58 50 -50 3 4 -6 18 -20 32 -14 14 -28 22
-30 18z"/>
<path d="M1312 3339 c2 -7 10 -15 17 -17 8 -3 12 1 9 9 -2 7 -10 15 -17 17 -8
3 -12 -1 -9 -9z"/>
<path d="M2445 3299 c11 -13 21 -26 22 -28 2 -2 3 3 3 12 0 9 -10 22 -22 28
l-23 12 20 -24z"/>
<path d="M2480 3245 c0 -8 7 -15 15 -15 8 0 15 7 15 15 0 8 -7 15 -15 15 -8 0
-15 -7 -15 -15z"/>
<path d="M6770 3184 c-48 -32 -110 -98 -110 -117 0 -17 5 -19 53 -13 28 3 65
3 81 -2 36 -10 85 -67 96 -113 5 -19 20 -65 34 -103 14 -38 26 -84 26 -103 0
-19 6 -62 14 -96 25 -110 38 -314 43 -690 4 -257 2 -385 -6 -426 -6 -33 -16
-115 -21 -183 -5 -67 -14 -141 -20 -163 -5 -22 -10 -65 -10 -95 0 -30 -7 -82
-15 -115 -9 -33 -20 -94 -25 -135 -25 -183 -42 -264 -66 -313 -8 -16 -14 -39
-14 -52 0 -12 -6 -25 -14 -28 -8 -3 -16 -16 -18 -29 -3 -20 -9 -23 -45 -23
-47 0 -57 16 -19 26 37 10 63 40 68 79 5 37 21 104 44 184 8 26 14 65 14 86 0
24 5 40 15 44 18 6 21 71 4 82 -7 4 -24 7 -40 6 -15 0 -33 6 -40 14 -9 11 -15
11 -25 3 -15 -13 -34 -4 -34 16 0 26 -20 26 -30 1 -9 -25 -40 -37 -40 -16 0
18 -39 10 -54 -11 -11 -16 -12 -26 -4 -38 7 -12 7 -50 0 -127 -7 -69 -8 -124
-2 -149 5 -22 10 -56 10 -76 0 -37 27 -108 55 -144 14 -18 27 -20 133 -19 64
1 192 2 285 3 l167 1 0 975 c0 924 -1 975 -18 975 -25 0 -41 31 -48 95 -6 45
-10 55 -26 55 -18 0 -18 -7 -12 -144 5 -107 4 -145 -5 -151 -20 -11 -25 2 -29
72 -5 68 -20 98 -51 98 -14 0 -17 26 -25 164 -8 147 -7 165 8 173 11 6 16 23
16 58 0 27 5 52 10 55 6 3 10 17 10 29 0 26 37 56 68 56 11 0 25 7 32 15 12
14 15 14 30 0 37 -33 40 -21 40 155 l0 170 -233 0 c-199 0 -236 -2 -257 -16z
m377 -2749 c27 -52 14 -69 -23 -32 -19 19 -23 31 -18 51 9 36 15 33 41 -19z
m-135 2 c-3 -34 16 -45 24 -12 3 14 10 25 15 25 8 0 43 -59 37 -61 -5 -1 -62
-2 -84 0 -27 1 -36 24 -24 57 13 32 36 26 32 -9z m208 -12 c0 -23 -5 -35 -14
-35 -8 0 -15 14 -18 35 -3 29 -1 35 14 35 14 0 18 -8 18 -35z m-270 -26 c0
-20 -15 -26 -25 -9 -9 15 3 43 15 35 5 -3 10 -15 10 -26z"/>
<path d="M2390 3100 c0 -5 9 -10 20 -10 11 0 20 5 20 10 0 6 -9 10 -20 10 -11
0 -20 -4 -20 -10z"/>
<path d="M6275 3090 c3 -5 19 -10 36 -10 16 0 29 5 29 10 0 6 -16 10 -36 10
-21 0 -33 -4 -29 -10z"/>
<path d="M6376 3090 c6 -6 31 -7 69 -1 l60 9 -69 1 c-46 1 -67 -2 -60 -9z"/>
<path d="M3903 2940 c0 -25 2 -35 4 -22 2 12 2 32 0 45 -2 12 -4 2 -4 -23z"/>
<path d="M3509 2925 c-7 -6 -2 -95 5 -102 3 -4 6 19 6 50 0 55 -2 62 -11 52z"/>
<path d="M4403 2893 c-25 -9 -12 -24 20 -22 17 1 44 -1 58 -5 18 -5 29 -2 38
8 12 14 10 16 -10 17 -13 1 -40 2 -59 4 -19 1 -41 1 -47 -2z"/>
<path d="M4560 2850 c0 -19 3 -21 12 -12 9 9 9 15 0 24 -9 9 -12 7 -12 -12z"/>
<path d="M3207 2838 c-2 -7 -1 -22 4 -33 6 -16 8 -14 8 13 1 33 -4 41 -12 20z"/>
<path d="M1967 2634 c-12 -12 -8 -96 3 -89 6 4 10 14 9 23 -1 10 1 25 6 35 8
19 -6 43 -18 31z"/>
<path d="M2100 2571 c0 -28 5 -51 10 -51 6 0 10 20 10 44 0 25 -4 48 -10 51
-6 4 -10 -13 -10 -44z"/>
<path d="M4495 2590 c-22 -3 -51 -13 -65 -21 l-25 -14 34 -3 c18 -2 38 1 44 7
6 6 21 11 33 11 23 0 41 15 27 22 -5 3 -26 1 -48 -2z"/>
<path d="M6447 2594 c-14 -14 -8 -149 8 -170 17 -22 17 -20 15 75 -2 67 -11
107 -23 95z"/>
<path d="M2038 2563 c0 -16 -2 -40 -3 -55 -1 -16 2 -28 6 -28 5 0 9 25 9 55 0
56 -9 77 -12 28z"/>
<path d="M4516 2531 c-3 -5 1 -12 10 -15 27 -10 44 -7 44 9 0 16 -45 21 -54 6z"/>
<path d="M4580 2501 c0 -13 37 -24 50 -16 6 4 8 11 5 16 -8 12 -55 12 -55 0z"/>
<path d="M2097 2477 c-3 -7 -2 -19 3 -26 5 -9 9 -8 14 5 4 9 3 21 -2 26 -6 6
-12 4 -15 -5z"/>
<path d="M4457 2474 c-11 -11 3 -24 24 -24 12 0 19 5 17 13 -5 14 -31 21 -41
11z"/>
<path d="M2275 2390 c-7 -12 2 -30 16 -30 12 0 12 27 0 35 -5 3 -12 1 -16 -5z"/>
<path d="M4790 2381 c0 -13 25 -20 39 -11 10 5 8 9 -4 14 -23 8 -35 8 -35 -3z"/>
<path d="M4660 2351 c0 -10 30 -24 37 -17 3 3 2 9 -2 15 -8 13 -35 15 -35 2z"/>
<path d="M4885 2350 c-3 -6 2 -13 12 -17 10 -3 21 -8 26 -10 4 -2 7 0 7 6 0
16 -38 33 -45 21z"/>
<path d="M6476 2313 c-9 -58 -7 -133 4 -133 6 0 10 35 10 85 0 47 -2 85 -4 85
-2 0 -6 -17 -10 -37z"/>
<path d="M5670 1841 c-13 -9 -12 -11 1 -16 25 -9 119 -1 119 10 0 13 -101 18
-120 6z"/>
<path d="M6145 1810 c-8 -12 22 -39 43 -40 19 0 10 20 -15 37 -15 10 -23 11
-28 3z"/>
<path d="M6050 1765 c0 -20 50 -32 61 -14 15 24 10 29 -26 29 -24 0 -35 -5
-35 -15z"/>
<path d="M5947 1743 c-10 -9 -9 -23 1 -23 5 0 17 7 28 15 19 14 19 14 -2 15
-11 0 -24 -3 -27 -7z"/>
<path d="M5478 1712 c-33 -9 -58 -22 -58 -29 0 -17 22 -16 67 2 24 10 70 15
139 15 104 0 137 12 67 24 -61 10 -154 4 -215 -12z"/>
<path d="M6130 1721 c0 -6 5 -13 10 -16 14 -9 52 4 45 16 -8 12 -55 12 -55 0z"/>
<path d="M5740 1684 c0 -12 10 -14 47 -12 66 4 70 28 4 28 -39 0 -51 -4 -51
-16z"/>
<path d="M5995 1690 c-4 -6 12 -10 42 -9 36 0 43 3 28 9 -28 12 -63 12 -70 0z"/>
<path d="M5973 1623 c26 -2 68 -2 95 0 26 2 4 3 -48 3 -52 0 -74 -1 -47 -3z"/>
<path d="M5957 1563 c18 -2 50 -2 70 0 21 2 7 4 -32 4 -38 0 -55 -2 -38 -4z"/>
<path d="M5090 1512 c0 -14 11 -21 26 -15 21 8 17 23 -6 23 -11 0 -20 -4 -20
-8z"/>
<path d="M4972 1478 c5 -15 28 -18 29 -3 0 6 -7 12 -17 13 -10 3 -15 -1 -12
-10z"/>
<path d="M5155 1481 c-7 -12 31 -25 46 -15 8 4 7 9 -2 15 -18 11 -36 11 -44 0z"/>
<path d="M5032 1448 c3 -7 13 -15 22 -16 12 -3 17 1 14 10 -3 7 -13 15 -22 16
-12 3 -17 -1 -14 -10z"/>
<path d="M6483 1433 c-12 -2 -27 -11 -33 -19 -7 -8 -17 -14 -22 -14 -14 0 -47
-42 -48 -60 0 -9 -7 -26 -16 -38 -9 -13 -18 -50 -21 -83 -5 -49 -3 -59 10 -59
8 0 18 -11 21 -25 3 -13 22 -40 41 -59 19 -20 35 -41 35 -47 0 -8 4 -8 13 -1
19 16 126 10 137 -8 8 -12 10 -10 10 10 0 14 14 40 31 58 24 27 33 31 45 22
12 -11 14 -2 14 59 0 68 -1 71 -20 59 -16 -10 -22 -10 -32 1 -11 10 -9 16 10
28 36 25 30 81 -14 127 -51 52 -87 63 -161 49z m133 -60 c28 -23 34 -35 34
-65 0 -39 -5 -44 -29 -29 -10 7 -20 0 -35 -22 -30 -44 -81 -50 -98 -12 -12 26
-11 31 17 97 11 27 -20 33 -44 9 -12 -12 -21 -32 -21 -46 0 -13 -5 -35 -11
-49 -23 -50 23 -148 74 -158 10 -1 18 -7 18 -13 0 -16 -34 -18 -45 -3 -6 9
-21 18 -34 22 -15 5 -25 18 -29 37 -3 16 -9 29 -13 29 -18 0 -22 79 -6 111 9
18 16 38 16 45 0 6 16 26 35 43 49 43 120 44 171 4z m30 -209 c-5 -13 -10 -14
-18 -6 -6 6 -8 18 -4 28 5 13 10 14 18 6 6 -6 8 -18 4 -28z m-35 -57 c-13 -13
-26 -3 -16 12 3 6 11 8 17 5 6 -4 6 -10 -1 -17z"/>
<path d="M5092 1419 c2 -7 10 -15 17 -17 8 -3 12 1 9 9 -2 7 -10 15 -17 17 -8
3 -12 -1 -9 -9z"/>
<path d="M5155 1391 c-7 -12 12 -24 25 -16 11 7 4 25 -10 25 -5 0 -11 -4 -15
-9z"/>
<path d="M4590 1241 c0 -4 24 -18 53 -32 28 -13 54 -27 55 -31 2 -5 13 -8 25
-7 l22 0 -22 11 c-13 6 -23 15 -23 20 0 4 -11 8 -25 8 -13 0 -28 6 -32 13 -9
15 -53 30 -53 18z"/>
<path d="M6294 1067 c-3 -9 -3 -25 1 -34 6 -16 8 -16 18 5 7 16 7 26 -1 34 -8
8 -13 7 -18 -5z"/>
<path d="M6363 1025 c0 -22 2 -30 4 -17 2 12 2 30 0 40 -3 9 -5 -1 -4 -23z"/>
<path d="M6812 1000 c0 -19 2 -27 5 -17 2 9 2 25 0 35 -3 9 -5 1 -5 -18z"/>
<path d="M6655 987 c-9 -34 10 -60 20 -28 3 11 2 28 -4 38 -8 16 -10 14 -16
-10z"/>
<path d="M6866 975 c-3 -9 -2 -24 3 -32 7 -13 9 -12 13 5 7 26 -7 50 -16 27z"/>
</g>
</svg>
