

<svg version="1.0" xmlns="http://www.w3.org/2000/svg"
 width="726.000000pt" height="480.000000pt" viewBox="0 0 726.000000 480.000000"
 preserveAspectRatio="xMidYMid meet">
<metadata>
Created by potrace 1.10, written by Peter Selinger 2001-2011
</metadata>
<g transform="translate(0.000000,480.000000) scale(0.100000,-0.100000)"
fill="#003350" stroke="none">
<path d="M3500 4029 c-19 -5 -69 -13 -110 -19 -125 -15 -253 -52 -380 -108
-74 -32 -139 -57 -195 -72 -29 -8 -55 -16 -127 -41 -18 -6 -51 -15 -73 -19
-53 -11 -142 -35 -185 -51 -92 -32 -120 -43 -185 -76 -38 -19 -83 -43 -100
-54 -16 -10 -37 -22 -45 -26 -8 -3 -29 -17 -46 -30 -64 -48 -390 -213 -421
-213 -12 0 -24 -4 -28 -9 -3 -6 -27 -20 -53 -32 -99 -46 -226 -110 -246 -124
-11 -8 -28 -15 -38 -15 -10 0 -18 -4 -18 -8 0 -5 -30 -23 -66 -41 -51 -25 -68
-30 -79 -21 -8 6 -36 12 -62 13 -46 2 -48 1 -51 -26 -2 -16 -11 -31 -20 -34
-25 -9 -82 -65 -82 -80 0 -8 -7 -16 -15 -19 -9 -4 -15 -19 -15 -35 0 -19 5
-29 15 -29 9 0 15 9 15 24 0 27 99 136 124 136 31 0 25 -19 -19 -56 -25 -22
-45 -43 -45 -47 0 -8 -40 -68 -51 -77 -4 -3 -9 -16 -10 -30 -5 -35 -23 -27
-29 12 l-6 33 -13 -24 c-8 -14 -10 -36 -7 -54 5 -23 2 -33 -14 -44 -25 -18
-27 -86 -4 -132 18 -35 17 -57 -9 -301 -8 -75 -19 -146 -26 -157 -13 -25 -15
-211 -2 -232 11 -18 17 -6 26 54 7 43 9 47 16 25 4 -14 7 -39 8 -56 1 -18 8
-45 16 -60 8 -16 15 -49 15 -74 0 -25 7 -54 15 -64 8 -11 15 -35 15 -54 0 -18
7 -40 15 -48 8 -9 15 -28 15 -43 0 -16 7 -34 15 -41 8 -7 15 -25 15 -40 0 -15
7 -33 15 -40 8 -7 15 -23 15 -37 0 -13 7 -35 16 -48 11 -17 13 -29 6 -42 -9
-16 -11 -15 -17 9 -4 15 -13 32 -21 39 -8 6 -14 22 -14 36 0 13 -7 26 -15 29
-10 4 -15 20 -15 45 0 26 -5 42 -15 45 -10 4 -15 20 -15 45 0 26 -5 42 -15 45
-10 4 -15 20 -15 50 0 30 -5 46 -15 50 -11 5 -15 23 -15 76 0 51 -3 69 -12 66
-20 -7 -22 -112 -3 -131 8 -9 15 -33 15 -55 0 -23 6 -45 15 -52 8 -7 15 -27
15 -45 0 -18 7 -38 15 -45 8 -7 15 -27 15 -44 0 -17 7 -40 15 -50 8 -11 15
-32 15 -47 0 -14 7 -32 15 -39 8 -7 15 -21 15 -31 0 -10 4 -20 9 -24 5 -3 19
-38 32 -78 12 -39 29 -82 37 -95 12 -19 13 -27 2 -46 -7 -14 -10 -40 -7 -62
20 -137 20 -144 4 -144 -28 0 -47 12 -47 30 0 26 -11 50 -22 50 -6 0 -8 -14
-4 -35 6 -28 3 -37 -10 -42 -10 -4 -22 0 -29 10 -11 15 -14 16 -25 2 -16 -19
-44 -19 -60 0 -12 14 -15 14 -30 0 -27 -24 -50 -18 -62 16 l-11 31 -13 -31
c-16 -38 -22 -39 -35 -3 -10 26 -11 26 -25 7 -40 -54 1 -65 231 -64 l170 1 37
29 c20 16 46 29 57 29 13 0 30 15 46 40 21 34 26 54 29 134 3 77 1 93 -10 89
-8 -3 -14 1 -14 11 0 11 7 16 18 14 13 -2 17 4 16 29 -1 18 2 33 8 33 15 0 51
-21 70 -41 10 -9 25 -23 35 -31 10 -7 41 -39 68 -70 27 -32 55 -58 62 -58 7 0
13 -4 13 -9 0 -9 66 -51 131 -83 54 -26 117 -48 184 -64 67 -16 285 -45 295
-39 3 2 87 7 186 10 98 4 197 11 219 17 22 5 63 13 90 17 28 3 56 10 63 14 6
5 33 12 60 17 26 4 63 14 82 20 89 32 110 40 185 70 44 18 92 38 107 46 14 8
35 14 46 14 10 0 33 7 50 16 22 10 64 16 134 17 l103 2 77 -48 c43 -26 83 -47
89 -47 6 0 23 -7 37 -14 97 -53 143 -59 392 -57 107 2 287 4 400 4 l206 2 53
43 c30 23 57 42 61 42 16 0 110 165 110 192 0 6 7 24 15 41 8 18 16 68 17 112
l3 80 40 8 c22 4 59 11 83 16 62 12 151 101 200 201 35 73 36 77 34 180 -2 80
-6 106 -17 113 -8 4 -15 21 -15 36 0 16 -7 34 -15 41 -8 7 -15 20 -15 30 0 10
-6 23 -14 30 -18 14 -11 36 12 44 19 7 35 17 102 61 93 62 132 126 143 233 8
77 -11 83 -30 9 -15 -61 -28 -78 -104 -134 -82 -61 -104 -73 -130 -73 -12 0
-27 -7 -34 -16 -16 -22 -174 -32 -186 -12 -4 7 -3 18 2 25 16 18 7 67 -13 71
-15 3 -17 -4 -15 -50 2 -46 -1 -53 -17 -53 -12 0 -22 13 -33 43 -22 65 -15 83
37 102 68 24 89 38 96 65 4 16 13 25 25 25 16 0 19 -8 19 -45 0 -35 4 -45 16
-45 14 0 15 7 9 38 -11 58 -6 94 15 114 17 16 18 27 13 86 -9 99 -44 158 -123
208 -73 47 -84 53 -110 64 -36 16 -130 89 -130 100 0 13 37 50 50 50 6 0 10 7
10 15 0 8 -7 15 -15 15 -8 0 -15 -4 -15 -10 0 -5 -9 -19 -21 -31 -27 -27 -52
-18 -43 16 4 15 2 25 -5 25 -6 0 -11 5 -11 10 0 6 15 8 40 4 27 -4 40 -3 40 5
0 6 11 11 25 11 14 0 25 5 25 10 0 13 43 13 56 0 7 -7 33 -7 81 2 105 18 138
4 243 -103 106 -107 135 -139 143 -161 3 -10 11 -18 17 -18 5 0 10 -5 10 -11
0 -6 12 -27 28 -46 24 -33 27 -46 30 -130 4 -88 12 -113 26 -77 12 30 6 155
-9 190 -8 19 -35 58 -60 87 -25 28 -45 55 -45 59 0 12 -222 228 -235 228 -13
0 -55 42 -55 54 0 8 361 1 510 -10 155 -12 475 20 565 56 41 17 71 18 123 7
41 -10 73 -10 145 0 51 6 110 12 133 12 43 1 122 23 166 47 14 8 31 14 38 14
25 0 107 74 136 123 71 120 67 195 -14 287 l-40 45 -343 1 c-224 0 -360 5
-389 12 -25 6 -67 12 -95 12 -27 0 -77 7 -110 15 -33 8 -80 14 -105 15 -25 0
-85 7 -135 16 -127 23 -425 10 -425 -17 0 -21 55 -31 105 -19 71 17 300 19
316 3 7 -7 36 -13 63 -13 28 0 82 -7 121 -15 38 -8 101 -15 138 -15 46 0 78
-6 100 -17 29 -16 64 -18 370 -16 305 2 341 1 370 -15 65 -35 77 -52 77 -107
0 -30 -6 -59 -15 -71 -8 -10 -15 -29 -15 -42 0 -30 -44 -48 -83 -34 -22 8 -29
8 -34 -4 -3 -9 -19 -14 -43 -14 -23 0 -48 -8 -64 -21 -36 -28 -33 -43 7 -35
17 4 47 9 65 13 23 4 32 10 32 25 0 15 6 19 28 16 33 -4 37 -32 5 -36 -12 -2
-27 -10 -33 -18 -7 -8 -23 -14 -35 -14 -12 0 -28 -7 -35 -15 -7 -8 -27 -15
-46 -15 -18 0 -36 -5 -39 -10 -4 -6 -11 -8 -16 -5 -5 4 -3 15 6 28 21 30 19
37 -9 37 -16 0 -26 -7 -29 -21 -5 -17 -11 -20 -32 -15 -19 5 -32 0 -53 -19
-32 -30 -96 -35 -106 -9 -6 16 -8 16 -24 0 -13 -11 -37 -16 -75 -16 -55 0 -82
15 -56 31 11 6 11 11 2 20 -10 10 -14 9 -19 -4 -3 -9 -12 -17 -19 -17 -7 0
-15 -6 -18 -14 -3 -8 -26 -22 -52 -31 -36 -14 -49 -15 -58 -6 -9 10 -8 14 6
22 9 6 15 15 11 20 -3 5 -19 -4 -36 -20 -17 -17 -44 -35 -59 -40 -25 -9 -29
-8 -29 10 0 25 -6 24 -46 -6 -37 -28 -76 -32 -94 -10 -12 14 -15 14 -30 0 -22
-20 -47 -19 -59 2 -9 17 -10 17 -28 0 -23 -20 -53 -22 -53 -3 0 7 19 32 41 55
23 23 39 45 35 49 -4 4 -13 -1 -20 -11 -7 -9 -18 -17 -25 -17 -6 0 -11 -4 -11
-10 0 -12 -37 -50 -49 -50 -5 0 -11 -7 -15 -15 -7 -19 -40 -19 -56 0 -12 14
-15 14 -30 0 -18 -16 -56 -20 -64 -7 -9 15 6 52 20 52 8 0 14 5 14 11 0 5 14
23 32 39 17 16 29 33 25 37 -4 4 -21 -8 -37 -25 -16 -18 -34 -32 -39 -32 -6 0
-11 -4 -11 -8 0 -17 -63 -72 -82 -72 -17 0 -20 5 -14 30 6 32 -9 42 -19 12 -8
-29 -85 -58 -85 -33 0 10 -136 7 -163 -4 -16 -7 -17 -4 -11 21 l7 29 -33 -32
c-37 -36 -61 -41 -80 -18 -10 13 -16 11 -44 -9 -17 -13 -48 -29 -68 -35 -21
-7 -40 -16 -43 -21 -3 -4 -14 -6 -25 -3 -11 3 -30 -4 -45 -15 -49 -39 -70 2
-27 51 8 9 13 20 9 23 -9 9 -27 -5 -27 -21 0 -7 -7 -15 -15 -19 -8 -3 -15 -14
-15 -25 0 -23 -45 -40 -60 -25 -13 13 0 54 16 54 8 0 14 7 14 15 0 23 -24 18
-35 -7 -14 -30 -41 -46 -56 -31 -9 9 -4 23 20 59 21 32 28 51 21 58 -5 5 -10
19 -10 31 0 12 -7 30 -15 41 -22 29 -18 50 15 84 33 34 38 50 15 50 -8 0 -15
-7 -15 -16 0 -9 -6 -14 -12 -11 -8 2 -12 17 -10 34 2 19 -2 33 -11 36 -9 3
-17 28 -21 65 -4 39 -12 62 -21 66 -8 3 -15 11 -15 18 -1 19 -47 68 -65 68
-19 0 -19 -14 0 -30 8 -7 15 -23 15 -36 0 -14 4 -32 9 -42 28 -55 34 -76 35
-124 1 -34 6 -57 16 -64 13 -11 13 -15 0 -40 -8 -15 -27 -39 -42 -53 -16 -14
-28 -32 -28 -38 0 -13 -61 -19 -73 -7 -8 9 13 43 47 76 17 15 26 31 22 35 -4
4 -13 0 -20 -10 -7 -9 -17 -17 -22 -17 -5 0 -18 -14 -29 -30 -24 -35 -65 -40
-92 -11 -10 11 -29 21 -43 23 -14 1 -26 11 -28 20 -3 17 30 58 48 58 6 0 10 7
10 15 0 8 -5 15 -10 15 -6 0 -13 -7 -16 -15 -4 -8 -12 -15 -19 -15 -7 0 -15
-7 -19 -15 -3 -8 -17 -15 -32 -15 -24 0 -26 2 -20 34 5 24 2 37 -9 46 -8 7
-15 26 -15 42 0 16 -6 31 -15 34 -8 4 -15 12 -15 20 0 7 -9 18 -20 24 -11 6
-20 16 -20 22 0 11 -14 24 -58 55 -17 12 -26 13 -34 5 -9 -9 -6 -19 10 -42 12
-16 22 -33 22 -39 0 -5 7 -11 15 -15 8 -3 15 -10 15 -16 0 -10 -36 -50 -45
-50 -2 0 -15 -11 -29 -25 -17 -17 -20 -25 -11 -25 8 0 15 5 15 10 0 6 7 10 15
10 7 0 18 6 22 14 10 17 49 37 57 29 14 -14 4 -36 -31 -68 -40 -37 -80 -45
-89 -20 -4 8 -17 15 -30 15 -27 0 -33 24 -8 34 8 3 12 11 9 17 -5 7 -12 6 -23
-4 -23 -19 -54 -11 -47 12 4 15 1 17 -20 13 -18 -3 -25 0 -25 12 0 10 -9 16
-25 16 -14 0 -25 5 -25 10 0 6 -6 10 -14 10 -7 0 -19 7 -27 16 -8 9 -25 14
-46 12 -18 -1 -38 3 -45 10 -17 17 -28 15 -28 -7 0 -26 43 -54 59 -38 9 9 16
7 29 -11 11 -14 24 -21 34 -17 20 8 34 -13 19 -28 -15 -15 -14 -27 2 -27 18 0
75 -28 82 -41 10 -15 -26 -23 -47 -10 -14 9 -23 9 -33 1 -10 -8 -17 -6 -28 10
-12 18 -15 18 -20 5 -7 -16 -57 -21 -57 -5 0 6 -15 10 -34 10 -19 0 -37 4 -40
9 -3 5 -16 7 -27 4 -18 -5 -20 -3 -14 16 6 21 5 21 -14 9 -18 -11 -23 -11 -31
2 -5 8 -28 15 -51 17 -26 2 -47 9 -52 18 -10 19 -47 19 -47 0 0 -9 9 -15 25
-15 14 0 28 -7 31 -15 4 -8 14 -15 25 -15 10 0 38 -13 62 -30 25 -16 54 -30
65 -30 11 0 33 -6 49 -14 34 -17 119 -34 231 -47 46 -5 88 -12 93 -15 5 -3 53
-10 105 -15 104 -9 170 -25 195 -46 8 -7 20 -13 26 -13 6 0 16 -7 23 -15 7 -8
21 -15 32 -15 25 0 110 -44 141 -72 14 -13 46 -41 73 -63 27 -22 64 -54 84
-71 19 -17 76 -61 125 -97 117 -86 128 -97 114 -113 -16 -19 -4 -31 38 -37
120 -15 283 -132 283 -202 0 -25 -31 -65 -50 -65 -10 0 -23 -7 -30 -15 -9 -11
-16 -13 -23 -6 -7 7 -6 15 3 26 16 20 8 29 -19 20 -12 -4 -21 -15 -21 -27 0
-19 -4 -20 -45 -15 -28 4 -47 2 -51 -5 -4 -7 -10 -5 -16 6 -6 11 -22 16 -49
16 -26 0 -42 5 -45 15 -4 8 -17 15 -31 15 -14 0 -36 9 -50 20 -14 11 -33 20
-42 20 -19 0 -75 55 -84 83 -10 26 1 44 41 69 25 15 37 18 40 10 8 -24 22 -11
16 13 -6 23 -4 25 17 20 35 -9 99 21 99 45 0 15 -7 20 -25 20 -14 0 -28 -7
-31 -15 -4 -8 -18 -15 -34 -15 -15 0 -33 -7 -40 -15 -7 -8 -19 -15 -26 -15 -8
0 -14 -5 -14 -10 0 -6 -11 -15 -25 -20 -14 -5 -25 -14 -25 -20 0 -5 -6 -10
-14 -10 -17 0 -29 -56 -17 -78 16 -31 102 -102 122 -102 11 0 22 -7 25 -15 4
-8 16 -15 28 -15 11 0 30 -7 40 -15 11 -8 34 -15 50 -15 17 -1 42 -7 56 -15
15 -8 53 -14 92 -15 37 0 69 -4 72 -9 8 -13 -69 -51 -102 -51 -16 0 -37 -7
-48 -15 -23 -18 -85 -19 -103 -2 -11 10 -12 8 -6 -12 7 -23 6 -23 -28 -17 -21
4 -38 2 -42 -4 -9 -15 -68 -12 -91 4 -10 8 -29 12 -42 9 -12 -3 -33 2 -46 10
-13 9 -32 14 -43 11 -12 -3 -29 4 -46 22 -21 21 -30 24 -41 15 -10 -9 -16 -8
-26 4 -7 8 -18 15 -24 15 -24 0 -66 25 -72 43 -3 9 -15 17 -26 17 -24 0 -138
113 -138 136 0 8 -7 17 -15 20 -21 8 -38 78 -36 152 l1 63 -25 -17 c-23 -15
-25 -23 -25 -84 0 -51 4 -69 15 -74 17 -6 21 -46 5 -46 -6 0 -13 8 -17 18 -3
9 -12 24 -19 32 -31 37 -46 113 -46 241 -1 181 -19 200 -33 34 -3 -38 -7 -83
-9 -99 -2 -16 0 -56 4 -90 4 -33 5 -64 1 -68 -3 -3 -52 -12 -109 -18 -91 -11
-105 -10 -120 4 -17 14 -19 14 -36 -5 -11 -13 -23 -18 -34 -14 -9 4 -32 9 -50
12 -19 3 -36 12 -39 20 -4 11 -8 10 -19 -4 -11 -15 -16 -16 -33 -6 -11 7 -27
10 -36 7 -8 -4 -26 1 -40 10 -20 13 -25 26 -26 59 l-2 42 -6 -39 c-3 -22 -11
-41 -17 -43 -6 -2 -25 9 -42 25 -21 20 -34 26 -41 19 -15 -15 -41 10 -42 42
l-2 26 -4 -25 c-7 -34 -23 -42 -51 -24 -15 10 -48 16 -88 16 l-64 1 -2 36 -1
36 -4 -33 c-3 -23 -12 -36 -29 -44 -33 -15 -30 -32 5 -25 19 4 33 1 41 -9 10
-11 16 -12 27 -2 12 10 18 9 29 -7 18 -24 18 -30 -1 -45 -12 -10 -21 -10 -42
-1 -22 10 -29 9 -42 -3 -13 -14 -17 -14 -33 1 -17 15 -20 15 -44 -8 -20 -18
-29 -21 -42 -13 -13 9 -25 6 -54 -12 -21 -13 -46 -24 -56 -24 -10 0 -23 -5
-29 -11 -13 -13 -47 -33 -80 -48 -13 -6 -23 -14 -23 -19 0 -4 -13 -16 -30 -25
-16 -10 -30 -24 -30 -31 0 -25 84 -36 93 -12 3 8 19 17 36 21 17 4 31 11 31
15 0 5 17 12 38 15 20 3 49 13 64 21 30 16 79 19 94 5 12 -12 72 -13 147 -3
71 10 92 0 58 -28 -13 -11 -28 -20 -35 -20 -6 0 -17 -9 -24 -21 -11 -16 -19
-19 -45 -14 -18 4 -36 11 -41 16 -6 5 -26 9 -45 8 l-36 -1 28 -11 c15 -6 27
-14 27 -19 0 -4 18 -8 40 -8 46 0 53 -18 17 -47 -32 -25 -177 -219 -177 -236
0 -8 -7 -17 -15 -21 -8 -3 -15 -12 -15 -20 0 -7 -7 -16 -15 -20 -8 -3 -15 -11
-15 -19 0 -7 -20 -33 -45 -58 -25 -24 -58 -57 -73 -73 -24 -25 -87 -71 -160
-118 -59 -37 -152 -76 -242 -101 -114 -32 -128 -35 -138 -25 -7 7 -39 1 -95
-17 -88 -28 -87 -28 -245 -9 -63 7 -82 -4 -52 -31 15 -13 50 -22 126 -30 95
-11 112 -10 175 7 39 10 96 23 127 28 138 22 305 90 431 174 29 20 55 36 58
36 2 0 11 7 20 15 14 14 18 14 41 -1 23 -15 26 -15 37 0 7 9 20 16 29 16 20 0
21 -29 1 -36 -10 -4 -13 -13 -9 -26 5 -17 3 -19 -16 -13 -19 6 -21 4 -15 -15
6 -20 4 -22 -14 -17 -14 3 -21 0 -21 -8 0 -16 -46 -65 -60 -65 -6 0 -10 -4
-10 -8 0 -4 -30 -28 -66 -52 -123 -83 -143 -96 -211 -128 -26 -13 -60 -30 -75
-38 -14 -8 -33 -14 -41 -14 -8 0 -20 -7 -27 -15 -7 -8 -22 -15 -34 -15 -12 0
-31 -7 -42 -15 -10 -8 -29 -15 -41 -15 -12 0 -25 -5 -28 -10 -12 -20 26 -22
91 -6 52 13 72 14 97 5 29 -10 38 -8 87 20 77 44 159 81 180 81 10 0 23 7 30
15 13 15 50 21 50 8 -1 -12 -78 -67 -135 -97 -65 -34 -102 -63 -92 -72 7 -8
44 10 147 68 8 4 22 11 30 15 8 3 31 19 51 35 20 15 42 28 48 28 6 0 11 4 11
8 0 7 94 82 104 82 2 0 26 21 52 46 27 25 50 41 52 35 2 -6 -9 -22 -25 -36
-15 -14 -55 -50 -88 -80 -33 -30 -109 -91 -170 -135 -60 -44 -111 -85 -113
-90 -6 -16 34 -11 48 5 7 8 18 15 24 15 17 0 71 29 141 75 33 22 68 43 78 47
9 4 17 12 17 18 0 5 6 10 14 10 8 0 16 7 20 15 6 17 26 20 26 5 0 -14 -100
-109 -122 -116 -10 -3 -18 -10 -18 -15 0 -5 -6 -9 -13 -9 -7 0 -20 -9 -30 -20
-9 -11 -24 -20 -32 -20 -8 0 -15 -4 -15 -8 0 -5 -16 -16 -35 -25 -19 -9 -35
-22 -35 -28 0 -6 3 -9 8 -7 80 38 165 85 186 105 26 24 96 44 96 27 0 -5 -17
-20 -38 -34 -56 -38 -114 -98 -101 -105 5 -4 18 0 28 9 10 9 23 16 29 16 7 0
12 7 12 16 0 10 6 14 15 10 8 -3 21 1 29 9 19 19 22 19 46 -5 14 -14 16 -20 7
-20 -8 0 -43 -29 -78 -65 -35 -35 -74 -67 -86 -70 -13 -3 -23 -10 -23 -15 0
-6 -9 -10 -19 -10 -11 0 -23 -5 -26 -11 -4 -5 -19 -15 -33 -20 -25 -10 -26
-11 -8 -21 15 -8 22 -7 31 6 7 9 20 16 29 16 9 0 19 7 22 15 4 8 15 15 25 15
11 0 22 7 25 15 4 8 13 15 21 15 8 0 32 14 53 30 21 17 42 30 46 30 5 0 22 14
38 30 16 17 35 30 42 30 6 0 15 7 18 16 3 8 11 12 17 9 14 -9 -169 -185 -193
-185 -4 0 -8 -5 -8 -11 0 -11 41 -2 50 11 3 4 24 18 46 31 23 13 63 42 88 63
26 21 50 36 53 32 9 -9 -80 -98 -127 -128 -19 -12 -39 -28 -43 -35 -4 -7 -12
-13 -17 -13 -5 0 -26 -12 -47 -26 -21 -14 -48 -30 -60 -35 -13 -5 -23 -13 -23
-19 0 -5 -9 -10 -20 -10 -11 0 -24 -8 -28 -18 -4 -11 -19 -18 -41 -19 -18 -1
-37 -6 -40 -11 -3 -6 -22 -12 -40 -14 -41 -4 -55 -28 -17 -28 31 0 42 -15 18
-25 -20 -9 -445 -7 -482 2 -14 3 -34 12 -45 19 -11 8 -38 14 -60 14 -46 0
-118 23 -123 39 -2 6 -12 11 -23 11 -17 0 -61 21 -118 55 -34 21 -71 53 -71
63 0 6 -13 15 -29 20 -16 6 -35 23 -43 39 -7 15 -23 29 -35 31 -12 2 -27 10
-33 18 -7 8 -20 14 -29 14 -10 0 -26 7 -37 15 -10 8 -30 15 -43 15 -31 0 -111
40 -111 56 0 6 -18 39 -40 72 -46 69 -48 79 -17 92 18 7 19 9 4 9 -10 1 -28 6
-39 12 l-21 11 24 19 c19 15 20 19 7 19 -24 0 -73 44 -64 58 4 7 14 12 22 12
8 0 14 7 14 15 0 8 -9 15 -19 15 -33 0 -33 17 -1 43 37 32 41 57 5 33 -13 -9
-31 -16 -40 -16 -28 0 -15 30 21 47 34 17 37 17 49 0 7 -9 25 -17 42 -17 17 0
36 -7 43 -15 13 -16 80 -21 80 -6 0 11 -25 21 -55 21 -13 0 -28 6 -32 14 -4 8
-21 16 -38 18 -22 2 -30 8 -30 23 0 15 -12 24 -45 35 -25 8 -54 20 -64 26 -24
14 -48 101 -35 126 5 9 6 19 1 22 -4 2 -9 39 -10 81 -1 42 -7 86 -13 96 -7 15
-7 24 1 34 8 10 8 19 -2 35 -11 18 -10 23 5 35 18 13 18 14 0 23 -16 9 -18 27
-21 136 -3 104 -1 128 12 142 9 8 16 25 16 36 0 22 3 25 140 166 50 50 96 92
101 92 6 0 29 13 52 28 23 16 62 39 87 51 52 26 74 38 115 67 26 18 120 65
223 110 17 8 47 20 65 28 38 17 175 84 197 96 8 4 33 16 54 26 21 11 69 38
105 62 36 23 68 42 73 42 4 0 27 14 51 30 25 17 52 30 60 30 8 0 20 7 27 15 7
8 18 15 25 15 8 0 26 6 42 14 56 28 147 57 238 75 72 15 139 33 173 47 18 8
44 14 58 14 14 0 35 5 47 12 12 6 38 15 57 19 43 9 96 27 133 45 16 8 35 14
42 14 7 0 26 6 42 14 57 28 99 44 158 61 33 9 74 21 90 27 133 45 331 47 590
6 98 -15 202 -21 233 -13 25 7 26 8 7 15 -11 5 -49 9 -86 9 -36 1 -70 6 -76
12 -13 13 -115 37 -211 50 -40 5 -82 14 -92 19 -23 12 -162 11 -210 -1z m508
-506 c-2 -20 -9 -29 -26 -31 -30 -4 -41 24 -16 43 30 23 46 18 42 -12z m442
-135 c0 -6 -8 -29 -17 -50 -13 -29 -22 -38 -38 -36 -29 4 -30 39 0 71 27 28
55 36 55 15z m40 -62 c0 -8 -4 -18 -10 -21 -5 -3 -10 3 -10 14 0 12 5 21 10
21 6 0 10 -6 10 -14z m-1440 -512 c0 -27 -12 -31 -30 -9 -10 12 -10 18 0 30
16 19 30 10 30 -21z m110 -34 c17 -13 20 -20 10 -20 -8 0 -26 9 -40 20 -17 13
-20 20 -10 20 8 0 26 -9 40 -20z m249 -74 c22 -26 199 -36 357 -21 65 7 73 5
108 -19 21 -14 54 -30 72 -35 19 -5 68 -40 112 -80 44 -39 82 -71 86 -71 4 0
22 -11 40 -25 18 -14 37 -25 41 -25 5 0 17 -8 28 -17 10 -10 24 -18 30 -19 36
-3 78 -18 92 -34 19 -21 37 -159 23 -177 -5 -6 -16 -9 -23 -6 -8 3 -22 -3 -32
-12 -16 -16 -18 -16 -35 5 -12 14 -18 17 -18 8 0 -25 -21 -38 -42 -27 -13 7
-23 7 -31 0 -7 -5 -35 -11 -62 -12 -50 -2 -191 18 -210 29 -5 4 -20 5 -32 4
-11 -2 -24 2 -28 7 -3 6 -17 11 -30 11 -13 0 -27 5 -30 10 -4 6 -15 8 -25 5
-45 -14 -78 41 -51 84 12 18 31 5 31 -21 0 -12 3 -19 6 -16 3 3 0 55 -7 114
l-12 108 -45 48 c-25 26 -50 48 -57 48 -7 0 -18 7 -26 16 -8 10 -23 14 -43 11
-20 -3 -35 1 -42 11 -18 24 -182 30 -229 8 -19 -9 -35 -22 -35 -28 0 -6 -7
-16 -16 -22 -11 -9 -13 -17 -5 -36 9 -25 9 -25 17 8 6 28 10 33 29 28 17 -4
24 -1 28 14 5 18 14 20 96 20 72 0 100 -4 131 -20 22 -11 44 -20 49 -20 16 0
91 -75 91 -92 0 -8 7 -21 15 -28 22 -18 17 -125 -5 -125 -9 0 -17 13 -21 35
-4 19 -4 10 -2 -20 9 -95 9 -95 -7 -91 -8 2 -25 4 -37 5 -12 1 -28 7 -35 14
-6 6 -29 12 -50 12 -39 0 -108 27 -108 42 0 5 -5 6 -10 3 -6 -4 -30 2 -53 13
-23 11 -50 22 -60 26 -11 3 -21 15 -24 26 -4 17 -8 18 -20 8 -17 -14 -32 3
-33 37 0 11 -7 29 -15 39 -39 52 -1 161 78 219 54 40 69 44 86 23z m1411 -375
c0 -10 9 -30 21 -45 26 -34 16 -50 -28 -43 -20 4 -43 1 -54 -6 -17 -10 -22 -9
-31 7 -9 17 -12 17 -22 4 -6 -8 -30 -18 -54 -22 l-42 -6 6 42 c9 56 18 67 62
68 75 1 97 5 110 17 17 16 32 8 32 -16z m-356 3 c12 -30 7 -142 -6 -146 -30
-11 -38 4 -38 67 0 71 6 95 25 95 7 0 16 -7 19 -16z m62 -19 c6 -14 8 -13 20
2 19 26 32 7 36 -52 l3 -50 -49 0 -49 0 -2 58 c-3 51 -1 57 16 57 11 0 22 -7
25 -15z m-1721 -15 c0 -7 -6 -15 -12 -17 -8 -3 -13 4 -13 17 0 13 5 20 13 18
6 -3 12 -11 12 -18z m-44 -73 c-11 -17 -25 -33 -30 -35 -16 -5 -13 26 2 35 8
4 17 16 20 26 4 10 12 15 17 12 7 -4 4 -18 -9 -38z m582 1 c22 -13 99 -32 187
-47 25 -4 55 -13 67 -19 12 -7 32 -12 44 -12 26 0 119 -26 167 -46 18 -8 42
-14 53 -14 12 0 33 -6 47 -14 38 -20 189 -40 253 -33 126 14 157 19 209 32
214 54 324 67 560 69 l215 1 3 -28 c2 -16 10 -31 18 -34 8 -3 14 -18 14 -35 0
-17 6 -36 14 -42 17 -14 31 -142 16 -151 -5 -3 -10 -24 -10 -46 0 -35 -2 -40
-19 -34 -18 5 -19 2 -14 -29 6 -37 -3 -45 -26 -23 -11 10 -12 7 -7 -15 5 -21
3 -28 -8 -28 -8 0 -24 -16 -35 -36 -18 -29 -26 -35 -50 -32 -16 1 -35 -3 -43
-10 -12 -10 -18 -9 -28 3 -10 12 -15 12 -37 -2 -21 -14 -60 -17 -240 -19 -118
-2 -223 -6 -234 -9 -11 -4 -26 -1 -34 5 -12 10 -16 9 -21 -4 -9 -23 -33 -20
-44 7 l-9 22 0 -22 c-1 -15 -9 -24 -23 -27 -63 -13 -103 -14 -115 -5 -9 8 -14
7 -19 -4 -4 -11 -29 -17 -99 -22 -52 -4 -102 -4 -112 0 -10 5 -31 10 -48 11
-94 10 -127 18 -132 30 -3 8 -18 14 -33 14 -16 0 -30 7 -34 15 -3 8 -15 15
-26 15 -11 0 -23 7 -26 15 -4 8 -17 15 -30 15 -14 0 -27 7 -30 15 -4 8 -17 15
-29 15 -13 0 -26 3 -29 8 -2 4 -2 45 1 90 4 60 10 82 19 82 10 0 14 13 14 40
0 33 3 40 18 38 13 -2 16 3 14 27 -2 17 -12 39 -23 51 -10 11 -19 26 -19 32 0
7 -11 18 -25 24 -14 6 -25 15 -25 20 0 4 -6 8 -14 8 -7 0 -19 7 -26 15 -7 8
-29 15 -49 15 -20 0 -42 5 -49 12 -7 7 -42 12 -81 12 -60 1 -73 -2 -95 -23
-14 -14 -26 -30 -26 -37 0 -6 -7 -17 -15 -24 -10 -8 -15 -30 -15 -62 0 -35 -4
-48 -12 -46 -20 7 -22 95 -4 124 9 13 16 29 16 37 0 7 23 39 51 70 53 60 79
69 122 45z m7 -120 c15 9 21 9 27 -2 5 -9 28 -16 58 -18 35 -2 53 -8 61 -21 6
-10 21 -24 35 -31 20 -10 24 -18 22 -56 -1 -56 -26 -159 -44 -188 -12 -19 -11
-23 4 -35 11 -8 16 -19 12 -29 -6 -16 -9 -16 -33 0 -15 9 -44 33 -66 54 -21
21 -46 38 -56 38 -29 0 -82 32 -88 52 -3 15 -7 16 -19 7 -11 -10 -20 -6 -42
15 -27 26 -29 31 -24 89 6 67 38 115 68 104 9 -4 19 2 26 14 9 17 13 18 26 8
11 -10 19 -10 33 -1z m-93 -334 c21 -9 45 -20 53 -25 8 -5 24 -13 35 -18 11
-5 32 -20 46 -33 15 -14 33 -28 40 -32 8 -3 28 -15 44 -26 17 -11 37 -23 45
-27 8 -3 33 -18 55 -32 74 -47 187 -105 255 -130 88 -33 274 -36 450 -6 124
21 416 47 479 43 51 -3 55 -5 74 -40 18 -36 18 -40 2 -95 -34 -118 -78 -189
-109 -177 -12 5 -16 1 -14 -17 2 -15 -2 -23 -9 -22 -7 2 -13 -4 -13 -12 0 -8
-6 -15 -14 -15 -7 0 -25 -11 -40 -25 -15 -14 -35 -25 -45 -25 -10 0 -32 -3
-49 -6 -28 -6 -30 -4 -25 16 3 12 12 24 19 27 8 3 14 10 14 17 0 6 11 23 25
38 14 15 25 35 25 44 0 9 7 22 16 29 16 11 16 12 1 18 -12 5 -19 -1 -23 -18
-3 -14 -10 -25 -16 -25 -5 0 -14 -13 -19 -29 -6 -16 -17 -32 -25 -35 -8 -3
-14 -10 -14 -16 0 -13 -32 -45 -56 -54 -28 -12 -87 -15 -99 -5 -6 4 -26 8 -45
7 -76 0 -183 11 -192 20 -7 7 -15 6 -25 -4 -11 -10 -19 -11 -34 -4 -11 6 -24
8 -30 5 -5 -4 -17 -1 -25 6 -12 9 -20 9 -39 -1 -17 -9 -32 -10 -47 -4 -13 6
-44 7 -71 4 -26 -3 -51 -2 -55 2 -4 4 -32 9 -62 11 -30 2 -56 9 -58 15 -2 7
-17 12 -33 12 -17 0 -32 6 -35 15 -4 8 -14 15 -23 15 -9 0 -29 9 -46 20 -16
12 -45 27 -62 35 -18 8 -33 19 -33 24 0 6 -8 11 -18 11 -10 0 -25 15 -36 38
-10 20 -23 45 -28 56 -7 14 -5 23 11 37 12 11 21 27 21 35 0 8 10 29 23 45 27
38 28 115 1 151 -20 26 -98 88 -112 88 -5 0 -15 7 -22 15 -13 16 -70 21 -70 6
0 -16 27 -31 44 -25 10 4 18 0 22 -10 3 -9 10 -16 15 -16 6 0 23 -10 39 -22
21 -15 28 -27 24 -40 -4 -14 0 -17 18 -16 28 4 37 -32 13 -52 -8 -7 -15 -19
-15 -27 0 -8 -6 -27 -13 -41 -8 -15 -21 -42 -30 -60 -19 -37 -23 -82 -7 -82 6
0 10 -5 10 -11 0 -6 -13 -1 -30 11 -16 12 -30 30 -30 41 0 16 -5 19 -19 14
-14 -4 -23 0 -30 13 -6 11 -24 25 -41 30 -16 6 -30 18 -30 26 0 9 -9 16 -20
16 -13 0 -22 9 -26 28 -4 15 -14 35 -23 46 -39 45 -2 162 47 151 18 -4 25 -1
29 15 3 11 9 20 14 20 5 0 9 4 9 10 0 6 -9 6 -26 0 -14 -6 -32 -10 -40 -10
-19 0 -18 29 3 53 20 22 66 18 130 -9z m-325 -61 c-42 -53 -101 -105 -111 -98
-11 6 108 131 127 133 8 1 1 -14 -16 -35z m-142 -133 c-27 -21 -40 -25 -40
-12 0 15 24 32 45 32 19 0 18 -2 -5 -20z m200 -280 c0 -16 -95 -104 -136 -125
-21 -11 -43 -26 -47 -32 -4 -7 -16 -13 -26 -13 -10 0 -24 -7 -31 -15 -15 -18
-53 -20 -48 -2 3 6 13 14 24 16 10 2 21 7 24 11 6 9 110 80 117 80 8 0 87 64
96 77 9 15 27 17 27 3z m-300 -209 c0 -11 -39 -25 -47 -18 -3 3 -2 10 2 16 8
13 45 15 45 2z m-209 -36 c-1 -15 -24 -12 -29 3 -3 9 2 13 12 10 10 -1 17 -7
17 -13z m143 6 c6 -10 -33 -23 -46 -15 -4 3 -8 9 -8 15 0 12 47 12 54 0z
m-1449 -77 c-8 -6 -15 -16 -15 -23 0 -13 -36 -15 -44 -2 -3 5 5 16 19 25 14 9
28 29 32 44 l6 27 9 -30 c6 -22 4 -33 -7 -41z"/>
<path d="M3482 2490 c0 -19 2 -27 5 -17 2 9 2 25 0 35 -3 9 -5 1 -5 -18z"/>
<path d="M3422 2450 c0 -19 2 -27 5 -17 2 9 2 25 0 35 -3 9 -5 1 -5 -18z"/>
<path d="M3302 2440 c0 -19 2 -27 5 -17 2 9 2 25 0 35 -3 9 -5 1 -5 -18z"/>
<path d="M3623 2444 c-3 -8 -1 -29 5 -47 10 -32 10 -31 11 16 1 48 -5 60 -16
31z"/>
<path d="M4015 2407 c-4 -21 -3 -72 2 -115 l9 -77 8 75 c4 41 3 93 -2 115 l-9
40 -8 -38z"/>
<path d="M4078 2320 c-2 -56 0 -107 4 -114 10 -14 10 -6 10 113 -1 51 -3 95
-6 98 -2 3 -6 -41 -8 -97z"/>
<path d="M3840 2390 c-7 -15 -8 -84 -1 -103 8 -20 8 -20 12 4 4 23 -5 110 -11
99z"/>
<path d="M4201 2298 c0 -60 3 -98 9 -98 11 0 12 59 0 140 -7 50 -7 47 -9 -42z"/>
<path d="M3901 2335 c1 -43 2 -46 9 -22 5 16 5 38 0 50 -7 17 -9 10 -9 -28z"/>
<path d="M5075 2017 c-10 -35 -12 -64 -5 -82 8 -20 8 -20 15 0 4 11 11 30 16
43 5 13 9 27 9 31 0 15 -30 22 -35 8z"/>
<path d="M5012 1970 c0 -19 2 -27 5 -17 2 9 2 25 0 35 -3 9 -5 1 -5 -18z"/>
<path d="M4827 1983 c-9 -14 -7 -127 2 -142 14 -21 21 14 17 81 -3 57 -9 77
-19 61z"/>
<path d="M4953 1950 c0 -25 2 -35 4 -22 2 12 2 32 0 45 -2 12 -4 2 -4 -23z"/>
<path d="M5150 1955 c-12 -35 -6 -75 11 -75 5 0 10 8 10 18 6 99 -1 118 -21
57z"/>
<path d="M4887 1943 c-7 -36 2 -101 14 -109 5 -3 9 -14 9 -24 0 -10 11 -32 25
-47 20 -23 24 -25 25 -10 0 17 -23 60 -46 84 -7 7 -10 29 -7 50 2 21 0 49 -5
62 -9 25 -9 25 -15 -6z"/>
<path d="M4468 1933 c-2 -10 -1 -36 3 -58 6 -37 6 -36 8 18 1 57 -3 73 -11 40z"/>
<path d="M4682 1900 c0 -19 2 -27 5 -17 2 9 2 25 0 35 -3 9 -5 1 -5 -18z"/>
<path d="M3753 1875 c0 -22 2 -30 4 -17 2 12 2 30 0 40 -3 9 -5 -1 -4 -23z"/>
<path d="M4964 1868 c10 -52 26 -58 26 -10 0 32 -4 42 -16 42 -13 0 -15 -7
-10 -32z"/>
<path d="M3812 1860 c0 -19 2 -27 5 -17 2 9 2 25 0 35 -3 9 -5 1 -5 -18z"/>
<path d="M3956 1872 c-4 -12 -3 -29 2 -38 9 -15 10 -15 16 4 4 12 3 29 -2 38
-9 15 -10 15 -16 -4z"/>
<path d="M4525 1847 c-4 -26 -4 -59 0 -74 7 -26 8 -26 15 -8 12 27 12 97 1
114 -7 10 -11 1 -16 -32z"/>
<path d="M5035 1847 c-5 -17 -3 -33 3 -39 16 -16 27 18 14 45 -10 22 -10 21
-17 -6z"/>
<path d="M5100 1841 c0 -16 -7 -36 -15 -45 -8 -8 -15 -21 -15 -28 0 -7 -7 -24
-16 -36 -9 -13 -14 -25 -11 -28 8 -8 37 8 37 21 0 6 9 20 20 30 11 10 20 26
20 37 0 10 5 18 10 18 6 0 10 14 10 30 0 23 -4 30 -20 30 -15 0 -20 -7 -20
-29z"/>
<path d="M3867 1834 c-7 -40 9 -69 18 -32 4 15 3 34 -3 44 -8 14 -10 12 -15
-12z"/>
<path d="M4112 1810 c0 -19 2 -27 5 -17 2 9 2 25 0 35 -3 9 -5 1 -5 -18z"/>
<path d="M4593 1785 c0 -33 2 -45 4 -27 2 18 2 45 0 60 -2 15 -4 0 -4 -33z"/>
<path d="M4173 1770 c0 -36 2 -50 4 -32 2 17 2 47 0 65 -2 17 -4 3 -4 -33z"/>
<path d="M4736 1795 c-3 -9 -2 -24 2 -32 8 -13 10 -13 16 2 3 9 2 24 -2 32 -8
13 -10 13 -16 -2z"/>
<path d="M4317 1768 c-4 -16 -4 -40 0 -55 l6 -28 8 28 c4 15 4 39 0 55 l-8 27
-6 -27z"/>
<path d="M4860 1763 c0 -18 5 -33 10 -33 13 0 13 30 0 50 -7 11 -10 7 -10 -17z"/>
<path d="M4383 1725 c0 -27 2 -38 4 -22 2 15 2 37 0 50 -2 12 -4 0 -4 -28z"/>
<path d="M4652 1730 c0 -19 2 -27 5 -17 2 9 2 25 0 35 -3 9 -5 1 -5 -18z"/>
<path d="M4233 1705 c0 -27 2 -38 4 -22 2 15 2 37 0 50 -2 12 -4 0 -4 -28z"/>
<path d="M3302 2020 c0 -19 2 -27 5 -17 2 9 2 25 0 35 -3 9 -5 1 -5 -18z"/>
<path d="M3362 2020 c0 -19 2 -27 5 -17 2 9 2 25 0 35 -3 9 -5 1 -5 -18z"/>
<path d="M3482 1950 c0 -19 2 -27 5 -17 2 9 2 25 0 35 -3 9 -5 1 -5 -18z"/>
<path d="M3332 1880 c0 -19 2 -27 5 -17 2 9 2 25 0 35 -3 9 -5 1 -5 -18z"/>
<path d="M4766 1315 c-3 -9 -2 -24 3 -33 9 -16 10 -16 16 0 4 9 2 24 -3 33 -8
16 -9 16 -16 0z"/>
<path d="M4233 1285 c0 -22 2 -30 4 -17 2 12 2 30 0 40 -3 9 -5 -1 -4 -23z"/>
<path d="M4143 1195 c0 -22 2 -30 4 -17 2 12 2 30 0 40 -3 9 -5 -1 -4 -23z"/>
<path d="M4246 3911 c-8 -13 46 -21 145 -21 89 0 124 12 68 24 -47 9 -207 7
-213 -3z"/>
<path d="M4552 3881 c-9 -5 -1 -10 25 -14 56 -10 201 -8 207 2 12 18 -205 30
-232 12z"/>
<path d="M4857 3853 c-9 -15 67 -23 206 -23 94 0 118 3 109 12 -15 15 -306 25
-315 11z"/>
<path d="M4490 3635 c0 -9 5 -15 11 -13 6 2 11 8 11 13 0 5 -5 11 -11 13 -6 2
-11 -4 -11 -13z"/>
<path d="M5443 3643 c-7 -2 -13 -9 -13 -15 0 -14 43 -6 48 10 4 12 -12 15 -35
5z"/>
<path d="M3179 3629 c16 -6 28 -6 35 1 7 7 -1 10 -24 9 -33 0 -34 -1 -11 -10z"/>
<path d="M3835 3609 c-4 -6 -5 -13 -2 -16 7 -7 27 6 27 18 0 12 -17 12 -25 -2z"/>
<path d="M4285 3519 c-10 -15 3 -25 16 -12 7 7 7 13 1 17 -6 3 -14 1 -17 -5z"/>
<path d="M4232 3478 c-17 -11 -32 -24 -32 -29 0 -10 21 -1 55 24 32 24 13 28
-23 5z"/>
<path d="M5240 3484 c0 -17 22 -14 28 4 2 7 -3 12 -12 12 -9 0 -16 -7 -16 -16z"/>
<path d="M5425 3459 c-10 -15 3 -25 16 -12 7 7 7 13 1 17 -6 3 -14 1 -17 -5z"/>
<path d="M4524 3435 c-9 -22 5 -38 22 -24 18 15 18 25 -1 33 -9 3 -18 -1 -21
-9z"/>
<path d="M5180 3430 c0 -6 -20 -30 -45 -53 -25 -24 -42 -46 -39 -50 7 -6 114
95 114 107 0 3 -7 6 -15 6 -8 0 -15 -5 -15 -10z"/>
<path d="M6387 3404 c-11 -11 3 -24 18 -18 8 4 12 10 9 15 -6 11 -18 12 -27 3z"/>
<path d="M4721 3354 c-32 -33 -18 -44 14 -11 14 14 22 28 18 30 -5 3 -19 -6
-32 -19z"/>
<path d="M5905 3339 c-4 -6 -5 -13 -2 -16 7 -7 27 6 27 18 0 12 -17 12 -25 -2z"/>
<path d="M4773 3295 c-9 -24 1 -27 15 -5 8 13 8 20 2 20 -6 0 -13 -7 -17 -15z"/>
<path d="M4730 3245 c0 -8 7 -15 15 -15 8 0 15 7 15 15 0 8 -7 15 -15 15 -8 0
-15 -7 -15 -15z"/>
<path d="M0 3028 c0 -166 1 -171 19 -154 16 15 19 15 31 1 7 -8 21 -15 32 -15
31 0 68 -30 68 -56 0 -12 5 -26 10 -29 6 -3 10 -28 10 -55 0 -35 5 -52 16 -58
15 -8 16 -26 8 -173 -8 -138 -11 -164 -25 -164 -31 0 -46 -30 -51 -98 -4 -70
-9 -83 -29 -72 -9 6 -10 44 -5 151 6 137 6 144 -12 144 -16 0 -21 -10 -26 -58
-4 -38 -14 -67 -26 -80 -20 -21 -20 -40 -20 -992 l0 -970 158 -1 c86 -1 209
-2 273 -3 113 -1 117 0 137 24 49 60 75 217 60 367 -7 75 -7 112 0 124 8 12 7
22 -4 38 -15 21 -54 29 -54 11 0 -21 -31 -9 -40 16 -10 25 -30 25 -30 -1 0
-20 -19 -29 -34 -16 -10 8 -16 8 -25 -3 -7 -8 -25 -14 -40 -14 -16 1 -33 -2
-40 -6 -17 -11 -14 -76 4 -82 9 -4 15 -19 15 -42 0 -19 6 -58 14 -86 24 -85
39 -149 44 -186 5 -39 31 -69 68 -79 38 -10 28 -26 -18 -26 -37 0 -43 3 -46
23 -2 13 -10 26 -18 29 -8 3 -14 16 -14 28 0 13 -6 36 -14 52 -24 49 -41 130
-66 313 -5 41 -16 102 -25 135 -8 33 -15 85 -15 115 0 30 -5 73 -10 95 -6 22
-15 96 -20 163 -5 68 -15 150 -21 183 -8 41 -10 169 -6 426 5 376 18 580 43
690 8 34 14 77 14 96 0 19 12 65 26 103 14 38 29 84 34 103 11 46 60 103 96
113 16 5 53 5 82 2 47 -6 52 -4 52 13 0 10 -19 37 -42 59 -81 77 -68 74 -315
74 l-223 0 0 -172z m134 -2574 c5 -20 1 -32 -18 -51 -37 -37 -50 -20 -23 32
26 52 32 55 41 19z m126 -9 c12 -33 3 -55 -24 -56 -22 -2 -79 -1 -84 0 -6 2
29 61 37 61 5 0 12 -11 15 -25 4 -15 11 -23 17 -19 6 3 8 16 5 29 -10 40 19
49 34 10z m-208 -20 c-3 -21 -10 -35 -18 -35 -9 0 -14 12 -14 35 0 27 4 35 18
35 15 0 17 -6 14 -35z m265 -29 c-4 -9 -11 -16 -17 -16 -11 0 -14 33 -3 43 11
11 26 -10 20 -27z"/>
<path d="M4810 3100 c0 -5 9 -10 20 -10 11 0 20 5 20 10 0 6 -9 10 -20 10 -11
0 -20 -4 -20 -10z"/>
<path d="M795 3089 c38 -6 63 -5 69 1 7 7 -14 10 -60 9 l-69 -1 60 -9z"/>
<path d="M900 3090 c0 -5 14 -10 30 -10 17 0 30 5 30 10 0 6 -13 10 -30 10
-16 0 -30 -4 -30 -10z"/>
<path d="M3333 2940 c0 -25 2 -35 4 -22 2 12 2 32 0 45 -2 12 -4 2 -4 -23z"/>
<path d="M3720 2874 c0 -32 3 -55 6 -51 9 9 11 98 2 103 -4 3 -8 -21 -8 -52z"/>
<path d="M2736 2891 c-26 -5 -27 -7 -13 -19 10 -9 24 -11 39 -6 13 4 38 6 56
5 17 -1 32 3 32 9 0 5 -3 11 -7 11 -24 5 -82 4 -107 0z"/>
<path d="M2664 2859 c-3 -6 -1 -16 5 -22 8 -8 11 -5 11 11 0 24 -5 28 -16 11z"/>
<path d="M4020 2823 c0 -18 2 -33 4 -33 9 0 13 39 5 51 -6 10 -9 4 -9 -18z"/>
<path d="M5254 2626 c-3 -8 -2 -21 2 -28 5 -7 7 -20 6 -30 -2 -9 2 -19 8 -23
6 -4 10 10 10 39 0 45 -15 70 -26 42z"/>
<path d="M5127 2613 c-11 -10 -8 -93 3 -93 6 0 10 23 10 50 0 51 -1 55 -13 43z"/>
<path d="M776 2573 c-5 -26 -9 -120 -7 -153 1 -12 5 -11 16 4 10 13 15 44 15
92 0 74 -14 107 -24 57z"/>
<path d="M2695 2592 c-9 -10 7 -22 29 -22 12 0 27 -5 33 -11 6 -6 26 -9 44 -7
l34 3 -25 14 c-26 15 -106 31 -115 23z"/>
<path d="M5190 2537 c0 -31 4 -58 9 -61 9 -6 5 104 -4 113 -3 2 -5 -21 -5 -52z"/>
<path d="M2670 2525 c0 -16 17 -19 44 -9 22 9 10 24 -20 24 -15 0 -24 -6 -24
-15z"/>
<path d="M2605 2501 c-3 -5 -1 -12 5 -16 13 -8 50 3 50 16 0 12 -47 12 -55 0z"/>
<path d="M2815 2500 c-8 -13 9 -20 24 -11 10 6 9 10 -3 14 -8 3 -18 2 -21 -3z"/>
<path d="M5126 2481 c-4 -6 -3 -18 2 -27 8 -14 10 -14 15 -2 7 19 -8 44 -17
29z"/>
<path d="M2747 2474 c-14 -14 -7 -25 13 -22 12 2 21 8 21 13 0 12 -24 18 -34
9z"/>
<path d="M4944 2386 c-8 -22 3 -33 18 -18 9 9 9 15 0 24 -9 9 -13 7 -18 -6z"/>
<path d="M2412 2381 c-11 -7 -11 -9 0 -13 17 -6 38 1 38 13 0 11 -21 11 -38 0z"/>
<path d="M2327 2349 c-9 -6 -17 -14 -17 -19 0 -10 38 -1 45 11 9 13 -9 18 -28
8z"/>
<path d="M2545 2349 c-4 -6 -5 -12 -2 -15 7 -7 37 7 37 17 0 13 -27 11 -35 -2z"/>
<path d="M751 2268 c-1 -53 3 -88 9 -88 11 0 11 100 0 145 -5 21 -8 4 -9 -57z"/>
<path d="M1903 2163 c9 -2 25 -2 35 0 9 3 1 5 -18 5 -19 0 -27 -2 -17 -5z"/>
<path d="M1447 1844 c-15 -15 8 -24 63 -24 58 0 85 12 54 24 -21 8 -109 8
-117 0z"/>
<path d="M1062 1804 c-12 -8 -22 -19 -22 -25 0 -13 22 -10 44 6 29 22 7 40
-22 19z"/>
<path d="M1120 1773 c1 -23 20 -35 44 -29 40 10 33 36 -9 36 -19 0 -35 -3 -35
-7z"/>
<path d="M1264 1735 c24 -18 39 -20 34 -2 -3 6 -15 13 -29 15 -23 2 -23 2 -5
-13z"/>
<path d="M1055 1721 c-7 -12 31 -25 45 -16 5 3 10 10 10 16 0 12 -47 12 -55 0z"/>
<path d="M1538 1723 c-16 -2 -28 -9 -28 -14 0 -5 46 -9 104 -9 69 0 115 -5
139 -15 44 -18 67 -19 67 -2 0 30 -181 55 -282 40z"/>
<path d="M1175 1690 c-15 -6 -8 -9 28 -9 26 -1 47 4 47 9 0 12 -47 12 -75 0z"/>
<path d="M1402 1688 c3 -7 25 -14 51 -16 37 -2 47 0 47 12 0 12 -12 16 -51 16
-36 0 -49 -4 -47 -12z"/>
<path d="M1183 1623 c26 -2 67 -2 90 0 23 2 2 3 -48 3 -49 0 -68 -1 -42 -3z"/>
<path d="M1207 1563 c18 -2 50 -2 70 0 21 2 7 4 -32 4 -38 0 -55 -2 -38 -4z"/>
<path d="M2110 1511 c0 -11 26 -22 34 -14 12 12 5 23 -14 23 -11 0 -20 -4 -20
-9z"/>
<path d="M2041 1481 c-9 -6 -10 -11 -2 -15 15 -10 53 3 46 15 -8 11 -26 11
-44 0z"/>
<path d="M2235 1481 c-3 -5 -1 -12 5 -16 12 -7 30 2 30 16 0 12 -27 12 -35 0z"/>
<path d="M2175 1449 c-4 -6 -4 -13 -1 -16 8 -8 36 5 36 17 0 13 -27 13 -35 -1z"/>
<path d="M654 1431 c-12 -5 -38 -26 -58 -47 -44 -46 -50 -102 -13 -127 18 -12
20 -18 9 -28 -10 -11 -16 -11 -32 -1 -19 12 -20 9 -20 -59 0 -61 2 -70 14 -59
12 9 21 5 45 -22 17 -18 31 -44 31 -58 0 -20 2 -22 10 -10 11 18 118 24 138 8
8 -7 12 -7 12 1 0 6 16 27 35 47 19 19 38 46 41 59 3 14 13 25 21 25 13 0 15
10 10 59 -3 33 -12 70 -21 83 -9 12 -16 29 -16 38 -1 16 -34 60 -46 60 -4 0
-15 7 -24 15 -21 19 -107 28 -136 16z m141 -62 c19 -17 35 -37 35 -43 0 -7 7
-27 16 -45 16 -32 12 -111 -6 -111 -4 0 -10 -13 -13 -29 -4 -19 -14 -32 -29
-37 -13 -4 -28 -13 -34 -22 -11 -15 -45 -13 -45 3 0 6 8 12 18 13 51 10 97
108 74 158 -6 14 -11 36 -11 49 0 14 -9 34 -21 46 -24 24 -55 18 -44 -9 28
-66 29 -71 17 -97 -17 -38 -68 -32 -98 12 -15 22 -25 29 -35 22 -24 -15 -29
-10 -29 25 0 26 8 42 33 65 27 26 40 31 84 31 44 0 58 -5 88 -31z m-179 -205
c-5 -13 -10 -14 -18 -6 -6 6 -8 18 -4 28 5 13 10 14 18 6 6 -6 8 -18 4 -28z
m31 -60 c-9 -9 -28 6 -21 18 4 6 10 6 17 -1 6 -6 8 -13 4 -17z"/>
<path d="M2125 1419 c-4 -6 -5 -13 -2 -16 7 -7 27 6 27 18 0 12 -17 12 -25 -2z"/>
<path d="M2055 1391 c-7 -12 12 -24 25 -16 11 7 4 25 -10 25 -5 0 -11 -4 -15
-9z"/>
<path d="M1995 1360 c-3 -5 3 -10 15 -10 12 0 18 5 15 10 -3 6 -10 10 -15 10
-5 0 -12 -4 -15 -10z"/>
<path d="M2625 1243 c-11 -3 -24 -11 -28 -19 -4 -8 -19 -14 -32 -14 -14 0 -25
-4 -25 -8 0 -5 -10 -14 -22 -20 l-23 -11 22 0 c12 -1 23 2 25 7 2 4 27 18 56
31 28 14 52 28 52 33 0 4 -1 7 -2 7 -2 -1 -12 -4 -23 -6z"/>
<path d="M925 1070 c-9 -14 4 -52 16 -45 12 8 12 42 0 50 -5 3 -12 1 -16 -5z"/>
<path d="M873 1025 c0 -22 2 -30 4 -17 2 12 2 30 0 40 -3 9 -5 -1 -4 -23z"/>
<path d="M482 1010 c0 -19 2 -27 5 -17 2 9 2 25 0 35 -3 9 -5 1 -5 -18z"/>
<path d="M422 1000 c0 -19 2 -27 5 -17 2 9 2 25 0 35 -3 9 -5 1 -5 -18z"/>
<path d="M566 993 c-4 -13 -3 -31 3 -40 9 -17 10 -17 17 0 3 10 2 28 -3 40
l-10 22 -7 -22z"/>
<path d="M358 979 c-3 -8 -2 -23 2 -33 6 -18 7 -18 13 -2 4 10 3 25 -1 33 -7
12 -10 13 -14 2z"/>
</g>
</svg>
