<?xml version="1.0" encoding="utf-8"?>
<!-- Generator: Adobe Illustrator 23.0.1, SVG Export Plug-In . SVG Version: 6.00 Build 0)  -->
<svg version="1.1" id="Capa_1" xmlns="http://www.w3.org/2000/svg" xmlns:xlink="http://www.w3.org/1999/xlink" x="0px" y="0px"
	 viewBox="0 0 512 512" style="enable-background:new 0 0 512 512;" xml:space="preserve">
<style type="text/css">
	.st0{fill:#3B6079;}
</style>
<g>
	<path class="st0" d="M334.3,402.3c-10.4,20.9-15.7,31.4-26.1,36.6c-10.4,10.4-31.3,10.4-52.3,10.4c-26.1,0-41.8,0-52.2-10.4
		c-10.5-5.2-15.7-15.6-26.1-36.6c0,0-5.2-5.2-5.2-10.4l-20.9,5.3l15.7,52.2l31.3,26.2c10.4,26.1,31.3,36.6,57.4,36.6
		c10.4,0,26.1-5.3,31.3-10.5c10.5-5.2,20.9-15.7,26.1-26.1l31.3-26.2l15.7-52.2l-20.9-5.3C334.3,397.1,334.3,402.3,334.3,402.3
		L334.3,402.3z M391.9,47C355.2,15.7,313.5,0,256,0c-57.4,0-99.2,15.7-135.8,47C88.9,73.1,68,114.9,68,162
		c0,41.7,5.2,73.1,15.6,88.8c15.7,26.1,26.1,41.8,26.1,52.2l5.2,41.8l73.1,36.6l15.7,31.4c5.2,0,10.4,0,20.9,5.2
		c10.5,0,20.9,0,31.3,0c26.1,0,41.8-5.2,57.5-5.2l10.4-31.4l73.2-36.6l5.2-41.8c5.2-10.4,5.2-15.7,5.2-20.9
		C433.5,245.5,444,203.7,444,162C444.1,114.9,428.4,73.1,391.9,47L391.9,47z M177.6,303c-31.4,0-41.8-20.9-41.8-52.2
		c0-15.7,0-31.4,10.4-36.6c5.2-10.5,15.7-15.7,31.4-15.7c31.3,0,47,15.7,47,47C224.7,282.1,208.9,303,177.6,303L177.6,303z
		 M271.7,360.5c-5.3,0-10.5,0-15.7-5.2c-5.2,5.2-5.2,5.2-10.4,5.2c-5.3,0-10.4,0-15.7-5.2c-5.2,0-5.2-5.2-5.2-10.5
		c0-5.2,5.2-15.6,10.5-20.8c10.4-10.5,15.6-20.9,20.9-31.3c5.2,10.4,15.7,20.9,20.9,31.3c10.4,5.2,10.4,15.7,10.4,20.8
		C287.3,355.2,282.1,360.5,271.7,360.5L271.7,360.5z M339.6,303c-31.3,0-47-20.9-47-52.2c0-31.4,15.7-52.3,47-52.3
		c15.7,0,26.1,5.2,31.3,15.7c10.5,5.2,10.5,15.7,10.5,31.3C381.4,282.1,365.7,303,339.6,303L339.6,303z"/>
</g>
</svg>
